<svg xmlns="http://www.w3.org/2000/svg" viewBox="0 0 613 639" fill="#000"><!-- Mapa do Brasil: @svg-maps/brazil, Victor Cazanave, CC-BY-4.0 (https://github.com/VictorCazanave/svg-maps) --><path d="m 30.7,238 -2.1,-0 0.5,-1.8 -0.2,-0.8 -0.3,-0.5 -1.3,-0.7 -0.1,-0.5 0.3,-1.1 -0.8,-1.9 -1.1,-0.6 -5.6,-1.3 -7.3,-0.2 0.3,-0.6 2.5,-2.3 0.9,-1.2 0.3,-1.2 -0.2,-1.2 -0.7,-0.9 -0.8,-0.4 -1.7,-3 -0.8,-0.4 -0.9,-0.2 -1.1,-1.1 -0.9,-2.4 -2,-1.5 -1,-3.6 -0.9,-1.6 -1.9,-1.1 -0.1,-1.2 0.8,0.1 0.4,-0.5 0.1,-0.7 -0.2,-0.4 -2.1,-0.9 -0.4,-0.7 -2.2,-1.9 0,-0.4 0.6,-0.1 0.5,-1.3 -0,-1.3 3,-0.4 0.5,-0.4 -0.2,-1.4 -1.2,-1.6 0,0 17.9,7.5 23.7,5.7 12.1,3.1 26.4,14.2 28.5,12.1 0,0 3,1.3 0,0 -0.3,0.5 -1.6,0.7 -2.1,1.6 -2.9,2.8 -1.6,0.9 -0.7,-0.2 -1.5,0.2 -0.1,0.6 -1.9,1.3 -2.1,1 -1.4,1.8 -0.4,1.2 -0.6,0.3 -1.2,-0.8 -0.8,-0.1 -2.4,0.1 -0.7,0.3 -0.6,0.5 -0.4,0.9 -2.4,3.5 -3.8,1.3 -0.8,0.7 -1.9,0.5 -1,0 0.1,-2.1 -1.4,0.2 -3.5,-0.8 -5.2,-0.5 -5.1,0.4 -0.7,-0.6 -2.3,-0.2 -3.6,1.8 -2.7,0.6 -1.7,-0.7 -1.4,-1.4 -1.6,1.2 0,-17.6 0.1,-1.1 0.5,-0.7 0.1,-2.4 -0.3,-0.9 1,-1.2 0.5,-1.1 -1.2,0.2 -3,2.6 -1.6,1 -2.1,2.4 -1.9,0.7 -0.7,1.1 -1.8,1 z"/><path d="m 562.2,230.6 -0.2,-0.7 -1.4,-0.8 -0.5,0.1 -1,-0.3 -0.5,-1.4 0,0 1.3,-1.1 0.6,-1.1 2.2,-0.8 2.4,-3.3 0.1,-0.7 0.8,-0.6 1,1.2 1.7,0.3 1.1,-0.1 2.5,2 1.9,2.1 1.8,1.1 1.9,0.5 2.5,-0.7 3.1,0.3 1.2,-0.1 1.9,-1.1 1.2,0.1 1.8,-1.1 2.2,-2.3 0.1,-0.5 1.6,-1.2 2,-0.2 2.2,0.8 2.6,-1.3 1.5,-0.2 1.9,0.8 2.9,0.3 0.3,0.2 0,0 -2.8,5 -4.5,5.1 -3.6,3.6 -3,4.6 -3.3,2.9 -1,2 -1.3,1.8 0,0 -0.6,-1.3 -3.6,-2.2 -0.5,-0 -1.7,-0.8 -1.8,-1.4 -1.3,-2.5 -5.4,-3.1 -3.7,-0.9 z"/><path d="m 345.2,100 -0.9,-0.1 -0.8,0.3 -1.3,0.1 -2.8,-0.7 -1.4,-1 -0.4,-1.5 -1.9,-1.4 -0.1,-1.3 0.2,-0.7 -0.3,-1.6 -0.3,-0.5 -0.9,-0.2 -0.4,-0.9 0.1,-2.4 -2.9,-3.3 -0.8,0.4 -0.8,-0.2 -1.5,-3.5 0.1,-1.6 -0.6,-1.8 -0.6,-0.6 -0.7,-1.5 -0.2,-2.1 0.4,-3.1 -0.2,-0.3 -2.6,-0.7 -2,-2.3 -0.8,-2.8 0.2,-0.7 0.7,-0.2 -0.5,-1.2 -0.7,0 -2.8,-2.7 -0.9,0.1 -0.4,0.4 -1.3,0.1 -0.8,-0.3 -0.8,-1 -1.1,-0.8 -1.2,-0.1 -0.5,-1.3 -0.7,-0.8 -1.9,-1.1 -1.3,-0.5 -3.4,-0.4 -1.1,0.3 -1.2,-0 -0.3,-0.5 -0.2,-1.4 0.3,-4.5 0.6,-1.3 -0.4,-2.3 -0.6,-0.6 0,0 0.3,-0.2 1,0.3 -0,0.8 -0.3,0.2 0.3,1 1.5,-0.1 0.8,0.2 0.3,0.9 0.8,0.7 2.3,0.8 3.3,0.8 2.8,-1.8 0.3,-0.8 1.7,-1.2 0.8,-0.3 0.7,0.9 2.7,0.9 1.1,-0.1 1.7,-1 0.1,-0.4 0.3,0 1.5,1.3 -0.2,0.9 2.4,-0.2 0.5,0.5 0.9,0.2 0.6,-0 0.9,-0.5 1.7,-1.5 1.8,-1.1 1.8,-2.3 0.4,-1 -0.2,-0.5 3.1,-6.5 0.1,-1.8 1.1,-1.3 0.7,-0.2 3.6,-5.8 0.2,-1.1 0.8,-1.2 1.8,-1.6 0.6,-1.7 2.1,-1.1 0.5,-0.9 1,-0.6 0.6,1.5 0.9,1.4 -1.7,-4.8 -0.1,-1.3 0.2,-0.3 3.4,2.4 1.1,1.2 0.9,1.2 0.5,1.2 0,1.6 0.4,0.3 0.3,-0.5 0.4,-0.1 0.2,0.4 0.2,7.9 0.7,3.9 2.7,6 2.7,8.9 3.3,5 1,0.3 3.3,-0.1 2.8,0.9 1.3,0.8 0.8,2.6 -0.2,3.3 -1.3,1 -1.7,0.4 -0.4,0.3 1.8,-0.1 1,-0.4 0.3,0.2 0.1,0.6 -0.2,0.7 -5,4.1 -1.2,2.1 -2.1,1.4 -1.9,3.7 -2.9,3.5 -0.7,0.5 -0.9,-0.1 -1.4,0.5 -2.1,3 0,0 -1.3,0.1 -0.8,0.9 0,0 -1.5,1.7 -1,2.2 -1.1,1.9 -0.8,0.7 -3,3.5 -0.4,2.4 0.2,1.8 -1.9,1.8 -1,0.1 z m 23.4,-47 -0.5,-0.3 -1.1,-1.9 0.1,-0.9 0.2,-0.4 1.7,-0.5 0.4,0.4 0.8,2.3 -1,1.1 -0.7,0.2 z m 2.5,17.6 -0.4,-0.3 -0.1,-0.7 1.1,-1.1 0.9,-0.1 1.3,0.2 0.5,-0.1 0.4,-0.6 0.1,0.6 -1,1.4 -1,0.5 -1.8,0.2 z m 3.4,-2.9 -0.8,-0.2 0,-0.6 0.7,-1 1.3,-0.1 0.2,0.3 -0.1,0.5 -1.3,1.1 z m -7.2,-18.4 -0.8,-0.5 0.3,-0.8 0.9,-0.2 0.9,0.3 0,0.7 -1.3,0.5 z"/><path d="m 166.1,47.6 0.7,0.8 0.8,0.3 0.6,0 1.1,-0.4 0.6,0.1 0.1,1 1.2,1.2 1,0.4 0.9,-0.2 1.4,0.1 1.9,0.9 0.5,0.7 -0.9,3.3 -0.7,1.5 2.7,3.7 1.7,4.8 0.2,2.3 0.9,1.1 0.1,0.5 -1.6,1.5 0.4,1.6 0.7,1.6 -0.8,3 -0.6,1 0.3,5 0.9,2.2 1.2,0.8 0.6,0.9 1.1,4.3 -0.1,0.6 -1.1,1.3 -1.8,-0.3 -0.1,1.1 5,4.4 0.5,0 2,1.3 1.5,1.6 1,2 0.5,0.1 1.3,-0.4 2.4,1 -0.4,-2.1 0.8,-2.3 0.3,-1.7 -0.4,-1.8 0.8,-3 1,-1.3 1.3,-0.7 2.1,-0.7 0.6,-0.9 1.6,-0.1 2.8,0.9 1.9,2 0.9,2.5 1.8,0.2 1.3,-0.5 1.4,-1.4 2,-0.6 0.4,-0.4 0,-0.5 -1.1,-1.4 -0.2,-0.7 0.1,-0.7 1.1,-2.6 0.1,-1.1 1.7,-3 2.3,-3.3 -0,-0.7 18.5,0.1 0,0 0.4,4.9 -0.4,1.4 0.2,2.3 0.2,0.7 1.7,0.8 0.2,0.4 -0.3,0.7 -0.1,2.1 1.8,2 0.4,0.2 0.7,-0.2 1.8,1.2 0.6,1.8 0,0.9 0.3,0.5 4.6,3.8 4.6,2.5 0.6,0.9 1.4,1.1 1.9,0.7 2.4,1.3 2.3,0.7 1.4,0.1 1.3,0.8 0.1,0.6 1.3,1.3 2.7,1.4 1.1,2.2 1.9,0.8 0.8,-0.6 1.4,-0.3 0.2,0.5 -0.1,0.8 1.8,1.7 -29.9,64.2 -0.8,1.3 -1.4,1.1 -0.6,1 -0,1.1 0.8,2.3 0.4,0.6 1.1,0.6 1.6,1.6 0.6,1.3 0.1,2 0.6,0.6 0,0 -1.2,1.2 -0.2,0.6 -0.1,0.8 0.3,0.8 -0.3,1 -1.2,1.8 -0.9,0.6 -0.4,0.8 0.1,0.8 0.7,1.4 0.5,1.9 -1.4,4.2 -1.2,5.2 -1.2,0.7 -47.9,0.3 0,0 0,-0.7 -0.4,-0.4 -1.4,-0.3 -1.9,1.1 -0.5,1.7 -0.7,0.2 -3.2,-1.5 -0.7,-2.9 -0.6,-0.2 -1,0.1 -0.5,-0.2 -1.3,-3.3 -2.5,-1 -1.3,-1.3 -0.8,-1.9 -0.5,-0.5 -2.1,-1.1 -10.8,0.1 -1.4,2.6 -1.7,0.5 0.1,1.2 -0.3,0.2 -2.5,0.5 -1.2,1.6 -0.1,0.7 0.9,0.7 0.2,0.5 -0.4,1 -0.8,1.1 -2.1,1.2 -0.1,1.8 0.2,1.5 -3.9,-0.5 -2.1,0.4 -1.2,1.1 -1.8,-0.1 -0.8,-0.6 -0.5,-0 -1.8,1.3 -0.5,0.8 0.3,1.8 -2.5,3.2 -0.7,0.1 -0.7,-0.5 -0.6,-2.3 -0.4,-0.1 -1.8,1 -1.3,1.2 -1.4,0.4 -0.8,-0.1 -1.1,0.5 -0.4,0.5 -0.1,0.7 -1.2,0.8 -0.4,0 -2.3,-2.3 -0.7,-0.4 -2.9,0.3 -4,-0.3 0.2,1.3 -0.1,0.6 -1.6,1.8 -1.9,0.6 -3.3,2.6 0,0 -28.5,-12.1 -26.4,-14.2 -12.1,-3.1 -23.7,-5.7 -17.9,-7.5 0,0 -0.1,-0.7 0.7,-2.9 1.2,-1.4 4.9,-3.5 2.3,-0.2 0.5,-0.3 1,-1.6 0.1,-1 -1.7,-4.5 0.4,-1.2 1.2,-2.2 1.3,-1.3 0.9,-1.3 0.4,-1 0.3,-1.7 -0.3,-1.3 0.7,-2 0.3,-2.3 0.7,-0.8 3.7,-1.6 2.2,-1.2 1.1,-1 0.4,-1.4 0.8,-0.4 1.4,-0.1 1.6,-0.9 3.5,-2.7 2.4,-0.4 1.5,0.3 4.2,-1.2 1.5,-0.8 1.8,-0.4 3.3,0.4 1.3,-1.6 0.6,-1.4 1.1,-0.6 2.1,0.2 0.6,0.5 1.3,-0.2 1.1,-0.7 1.7,0.1 0.3,0.5 -0,1.2 1.6,1.3 2.8,0.1 0.6,-0.4 0.5,-0.8 -0.1,-0.4 1.2,-4.9 6.7,-37.2 1.2,-2.9 -1,-5 0.1,-0.3 -1.3,-1.1 -1.5,-2.8 -0,-0.5 0.7,-1.4 -0.5,-1.8 -0.4,-0.4 -1.7,-0.6 -3,-2.4 -1.9,-2.3 0.2,-11.5 3.9,-0.3 1.8,-1.2 3.5,-0.9 2.7,1.8 1.2,0.1 1.3,-0.4 -0.5,-1.7 0.3,-1.7 -1.4,-2.1 -0.6,-0.5 -1.1,-0.6 -1.5,0.5 -2.8,-0.6 -3.6,0.1 -0.1,-9.9 1,0 1.3,-0.6 2.3,-0.6 2.8,0.9 19,0.1 -0.5,-0.7 -0.8,-0.1 -0.4,-1.2 0.9,-1.9 1.4,0.4 0.6,1.5 0.9,1.3 0.7,0.3 0.8,0 1.6,-0.6 1.9,-2.1 0.3,-0.8 1.3,-1.2 2.5,-1.4 1.3,0.5 1.2,2.6 1.6,2 0.7,1.3 0.7,1.8 0.2,1.6 -0.5,3.6 0.2,1.8 3.2,-0.8 8.3,7.1 0.8,0.3 2.5,0.2 2.3,-1 1.7,-1.7 2.1,-1.2 2.2,-0.1 0.6,0.3 0.8,1.1 -0,1 -1.1,1.7 0.4,1 0.6,0.3 1.3,-0.7 0.6,-0.9 0.2,-1.3 1,-1.2 0.5,-0.2 1,0.2 0.6,-0.2 0.4,-0.7 0.5,-2.3 0.5,-0.4 1.5,-0.4 2.9,-1.8 1,0.6 0.9,-0.3 1.6,-1 1,-1.6 2.1,-1.2 2,0.6 2.4,-1.6 0.6,-0.8 0.4,-2.7 -0,-1.3 0.8,-0.9 1,-0.4 1.7,-0 1.3,-0.4 2.1,-1.6 1,-0.4 2.3,-0.3 z"/><path d="m 527.8,365.6 -0.4,-0.8 0.7,-1.4 -0,-0.5 -0.5,-1 -4.1,-3 -0.1,-0.5 0.2,-1.5 -0.6,-1.2 -0.7,0.2 -0.2,0.5 -0.3,0.2 -0.2,-0.3 0.5,-4.4 0.8,-3.3 0.8,-0.9 2.5,0.2 1,-0.7 0,-0.4 -0.6,-1 0.2,-2.6 5,-4.2 1.5,-3.1 -0.4,-1.2 -0.8,-1 -0.9,-0.1 -0.7,-0.4 -2.8,-2.5 -2.1,0 -2.2,-0.6 -2.3,-1.1 -2.7,-0.6 -2,-0.1 -1.3,1 -1.5,0.5 -2.6,-0.5 -0.6,0.2 -0.4,-4 -6.5,-6.2 -0.4,-0.2 -4.4,1.2 -1.5,-1.2 -0.5,0.2 -0.9,-0.2 -2.5,-1.2 -2.2,-1.6 -1,0.2 -4.3,-3.6 -1.1,-0.5 -2.7,-0.8 -1.8,0.3 -1.9,0.9 -0.8,1.1 -0.6,0.2 -5.3,-1.5 -0.6,-0.5 -0.3,-1.5 0.1,-0.9 1.3,-2.7 -0.9,-0.5 -2.3,-0.5 -2.2,-0 -1.2,-0.5 -1.8,-0.1 -3.8,1.6 -4.3,3 -0.6,1.1 -3.4,1.9 -2,0.4 -0.9,1.2 -1.8,1.6 -1.4,0.5 -1,-0.1 -1.9,2.6 -1,0.8 -2.1,-0.4 -0.7,0.1 -0.7,1 -1.3,0.9 -0.4,-0.2 1.4,-3.4 -0.5,-2.4 0,0 1.5,-2 0.3,-0.8 -0.2,-1.3 -0.7,-1.7 0.1,-0.7 0.7,-1.4 -0.1,-0.5 -3.2,-2.6 -1.7,-3.5 -0.6,-3.5 0.1,-1.6 1.2,-3.8 1.6,-1 0.2,-0.4 0.1,-0.9 -1.6,-0.8 -0.1,-0.3 0.5,-2.5 1.4,-1.1 -0,-0.4 -2.7,-2.5 0,0 -0,-0.9 1.4,-2.4 -0,-1.1 -0.2,-0.4 -1.5,-0.5 -0.9,-0.7 -0.3,-1.3 0.1,-2.9 0.2,-0.8 1.9,-1.7 1.1,-0.4 1,-0.7 -0.3,-0.6 -0.6,-0.5 -0.9,-0.3 -1,0.2 -0.3,-0.3 -0.1,-0.5 0.4,-1 2,-0.8 0.6,-0.5 -0,-0.8 -1.9,-1 -3.6,-0.7 -1.9,-2 -0.2,-0.9 0.5,-1.2 1,-0.7 1.5,-3.5 0.9,-0.6 1,-0.3 0.3,-0.4 -1.3,-1.8 0.2,-0.4 3.2,-2.6 3.8,-2 0.6,-0.5 0.2,-1 0.7,-0.7 0,0 2.3,-0 1.4,1.3 0.7,1 0.5,2.2 1.8,2.5 4.2,1.9 1.8,-0.5 2.1,0.2 0.3,-0.2 0.8,-1.4 1.1,-0.4 0.7,-0.9 1.2,-0.9 2.2,-0.8 1.3,0.2 1.5,0.5 1.4,-0.4 3,-2.4 3,-5 0.7,-0.9 0.2,-0.9 0.3,-2.6 -0.1,-1.2 -2.2,-4.4 0.1,-0.9 3.2,-1.6 1.9,-0 1.5,0.5 0.4,0.9 0.3,0.2 2.1,-0.4 1.4,-0.5 1.3,0.4 1.7,1 -0.1,0.7 0.2,0.3 0.8,0.3 3,-0.1 1.5,-0.6 1.7,-0.1 0.8,-1.2 1.5,-1.3 2.7,-0.3 0.8,-0.4 0.8,-1 2.2,0 0.6,0.6 0.3,0.1 1.9,-1.8 -0.1,-2.4 2,-0.4 0.8,0.2 1.1,-0.7 1.5,-2.3 0.5,-1.1 0,0 0.9,0.4 1.2,-0.3 2.2,0.3 2.8,1.4 0.4,0.5 -0.1,2.7 0.7,1.9 2.2,0.9 0.3,2 -0.9,1.7 1.8,0.6 1,-0.2 0.8,-0.9 2.9,-0.9 0.8,-3.6 0.5,-0.9 0.8,-0.2 0.8,0.5 0.6,0.1 2.4,-1 1.1,-1.2 0.2,-0.6 -0.3,-1.4 0.3,-0.3 2.2,-0.5 0.8,-2 1.6,-0.4 2.5,-1.5 0.6,-0.1 1.5,0.6 0.8,1.4 1.4,0.8 2.4,0.8 3,0.4 1.6,1.1 0.5,1.6 0.4,0.3 0.4,-0.1 0.3,-1.8 0.4,-0.4 1,-0 0.5,0.3 0,0.6 -0.6,0.9 0.5,0.8 0.5,0.4 2.1,0.9 0,0.9 1.2,3 0,0 0.5,1.4 1,0.3 0.5,-0.1 1.4,0.8 0.2,0.7 0,0 -0.7,1.2 0.2,2.1 1.3,2.5 2,1.9 0.8,1.1 -0.1,3.1 -0.7,1.6 -0.1,0.9 0.8,2.8 -0.3,0.6 -0.7,0.6 -2.5,1 -1.1,-0.8 -1.7,-0 -0.3,0.3 -0.6,1.6 0,0.8 0.9,1.6 1.1,0.7 0.5,1.5 1.4,1.5 0.1,0.4 -0.1,1.4 -0.3,0.4 0.1,0.4 0.6,0.5 1.9,0.9 0.5,0.7 0.5,0.3 1.6,0.6 2.9,-0.9 0,0 0.6,-0 0.4,0.4 -4.1,8.8 -3.8,5.2 -1,2.3 -5,5.7 -2.5,1.3 -0.9,-0 0.3,-1.4 0.4,-0.1 0.1,-1.1 -0.5,-1.9 -1.9,-0.3 -0.4,-1.3 -0.7,-0.8 -0.4,0.6 -0.5,2.3 -0.5,0.9 -0.6,0.4 -0.6,-0.3 -0.5,-1.7 0.1,-0.3 0.3,-0.1 -0,-0.4 -0.9,1.3 0.9,1.7 0.5,0.2 0.4,-0.1 1.1,0.3 -0.5,1.8 -1.2,1.1 -0.3,1.8 -1.3,1 -0.3,0.7 -0.2,0.8 0.2,0.8 -1.4,-0.4 -0.2,0.4 -0.4,2.5 0.4,-0.7 0.8,0.2 0.2,0.5 -0.2,0.4 0.1,0.6 0.3,0.3 0.3,1 -1,2.5 0.6,3.4 -0.6,0.5 -0.6,-0.2 -0.1,1.1 0.6,0.5 1.2,-1.7 -0.5,-2.2 0.8,-0.6 0.3,0.5 -0.1,1.8 -1,2.6 -0.7,5.4 -0.5,1.8 0.2,2.5 0.8,2.9 0.2,4.5 0.9,6.4 1,3.4 -2.2,6.7 -1.4,6.7 -0.5,1 -0.2,2.9 -1.1,3.7 -0.1,2.3 0.4,4.4 0.9,1.7 -2.2,3 -1.8,0.7 -0.9,0.6 -2.7,3.9 -0.6,2 0,0 -8.1,-5.1 -0.3,-0.5 z m 22.3,-78 -0.2,-1.2 0.7,-0.4 1.1,-1 0.2,-0.6 -0.4,-0.7 0.8,0.1 0.8,1.1 -0.1,0.5 -2.9,2.3 z m -2.5,6.8 -0.6,-0 0,-0.7 0.3,-0.4 -0.8,-0.2 -0.4,-0.4 0.1,-1.1 1.9,-0.1 0.2,0.2 0.1,1.1 -0.7,1.6 z"/><path d="m 574.1,157.1 -4.9,1.6 -2.6,2 -3.3,6.7 -0.8,1.1 -0.9,0.6 -0.7,1.7 0.1,0.7 -1.4,2.4 -1.5,1.5 -0.6,1.1 -1,0.3 -0.8,-0.5 -0.5,0.1 -0.8,0.9 -1.4,2.3 -0.3,2 0.6,0.2 0.7,-0.4 0,0 -0.1,0.5 -0.8,1.1 -1,3 0.5,1.3 -0.7,1.3 -1.1,0.6 -0.2,0.4 -0.1,0.9 0.2,0.4 0.6,0.3 0.3,0.7 -0,1.7 1.2,0.9 0.7,0.1 0.3,1.2 -1.6,3.5 -1.2,1.1 0.2,0.3 0,0 -1.6,0.5 -1.1,0.8 -1.5,2.3 -1.6,0.1 -0.6,-1.6 -0.8,-0.6 -1.4,-0.5 -1,-1.1 -0.5,-1 -1.8,-0.8 -2.9,-1.9 -3.1,-0.4 -1.3,0.1 -2.1,0.8 -1.6,0.2 -0.9,-0.2 -4.9,-0.2 0,0 0.1,-1.3 -0.7,-0.7 -0.1,-1 1.1,-3.1 1.5,-2.3 0,-0.7 -0.8,-1.2 -2.6,-0.5 -1.3,-0.7 -1,-2.7 -1.1,-5.2 -0.8,-2.6 0.2,-0.5 -0.9,-8.2 -0.1,-0.4 -0.9,-0.7 0.8,-0.6 0.6,-1.6 -0.6,-3 -1,-2 0.5,-1.6 -0.8,-3.9 0.7,-1.4 0,-0.8 -1.4,-1.6 -0.4,-1.7 -3.1,-6.4 -1.8,-4.7 -0.3,-1.3 0.2,-1.5 1.6,-2 1.1,-1.9 0.1,-0.8 0,0 0.2,-0.1 -0,-0.6 -0.4,-0.7 0.7,-0.8 6.7,-0.2 2.9,-0.4 2.1,-0.7 7.4,0.8 2.1,1.1 1.9,1.5 4.1,2.2 1.5,0.5 4.8,3 1.2,0.2 2.2,2.3 3,2.1 2.6,0.7 2.4,2.9 1.2,0.6 3,3.8 4.2,3.1 1.5,2 1,1 1.5,0.8 1.1,0 2.4,0.9 0.8,0.7 z"/><path d="m 417,334.1 -14.7,-0 -0.5,-3.3 0.9,-1.8 0.4,-3.7 11.9,0 1.8,2 0.1,2.2 -0.6,1.2 -0.2,2.4 z"/><path d="m 501.9,411.6 -0.3,-0.1 0.4,-2.3 0.6,-1.3 -0.6,-3.1 0.2,-0.4 1.7,-2.1 5.2,0 0.6,-0.3 1,-3.2 1.1,-1.3 0.9,-2.3 0.2,-1.7 0.3,-0.4 1.2,-0.9 1.7,-2.1 0.5,-3 -0.3,-2.4 -1.3,-2.8 -1.1,-1.3 -0.5,-0.1 -0.5,0.3 -0.8,-0.3 -0.5,-0.7 0.4,-0.6 1.5,-0.1 0.8,0.3 1,0 0.9,-0.2 0.3,-0.4 -0.2,-1.7 -1.3,-0.3 -0.2,-0.4 0.3,-1.5 0,-1.9 -0.5,-0.7 -1.3,-0.7 -0.3,-0.7 1.2,-1.9 2.2,-1.3 0.3,-0 1.1,0.7 1.1,0.1 0,-0.8 -1.7,-2.3 1.3,0.1 2.2,-0.3 0.8,-0.6 1.1,-0.3 1.6,-0.1 2.5,0.8 0.9,0.6 0,0 0,0 0,0 0.3,0.5 8.1,5.1 0,0 -0.9,3.4 -0.3,2.9 0.1,3.6 0.7,6.2 -0.3,2.5 -1.5,3.2 -2.8,1.4 -0.6,0.6 -1.7,3.3 -1,3.8 -0.8,1.5 -0.8,-0.7 -0.9,-0.1 -0.3,1.3 1.4,0.5 -1.9,4.2 -3.5,3.8 -0.2,-0.3 -1.9,0.7 -0.8,1.2 -0.1,1.4 -0.4,1.3 -1.6,2 -0.3,1.1 0,0 -1.6,-1.1 -3,0.4 -4.3,-1 -2.5,-1.1 -0.7,-4.7 z"/><path d="m 417,334.1 -0.9,-1 0.2,-2.4 0.6,-1.2 -0.1,-2.2 -1.8,-2 -11.9,-0 -0.4,3.7 -0.9,1.8 0.5,3.3 14.7,0 0,0 0,0 0,0 -0.5,1.5 0.3,1.6 -0.7,1.6 -1,1.3 -0.4,1.5 0.8,1.2 0.8,0.3 1.4,1 1.6,4.6 0,0.6 -2.3,2.7 -3.2,3 -0.4,2.1 1.1,1.1 0.9,-0.5 1.6,0.6 0.5,0.6 0.2,1 -0.2,0.7 -0.7,0.9 -0.5,1.9 1.2,3.5 -3.1,2.1 -1.2,0.2 -0.9,0.9 -0.5,1.1 -4.9,2.7 -0.7,-0.8 -4.3,-1.9 -0.6,0.5 -0.6,0.1 -1.8,0 -1.5,-0.3 -3.9,0.2 -2,-0.9 -4.1,2.6 -2.9,2.9 -0.3,0 -1.3,-1.4 -1.5,-0.3 -3.2,1.6 -3.7,-0.6 -2.5,1 -2.2,0.5 -1.4,2.1 -1.2,2.5 0.1,1 -0.8,1.3 -0.8,0.3 -0.8,-0.2 -0.5,0.1 -0.9,0.7 -1.6,2.1 -0.6,1.9 0.6,0.6 -0,0.3 -0.4,0.2 -0.9,-0.5 0,0 -0.2,-0.5 -2.7,-2.2 -3.1,-0.6 -1.6,-1.6 -1.9,-0.4 -1.5,-0 -3.4,-1.3 -0.7,-0.8 -3.1,-1.6 -0.7,-0.6 -1.4,-0.7 -1.1,-0.2 -2.7,-1.7 -2.8,0.2 -3.8,-0.7 -0.1,-0.3 0.3,-0.8 0.6,-1.2 1.3,-1.8 -0.1,-0.4 -2.3,-0.9 -1.1,0.7 -0.7,-0.2 -0.3,-0.4 -0.2,-1.1 0.3,-2.6 -0.2,-1.8 0,0 -0.9,-2.2 -0.2,-3.4 -1.4,-2.2 -0.2,-0.7 0.4,-3.4 2.5,-3.9 0.4,-2.9 0.7,-0.8 2,-0.8 1.9,-1.8 1.3,-2 0.3,-1.9 0.5,-1 1.3,-1 0.8,-1.4 0.1,-1.5 1.8,-1 1.4,-2.6 2.6,-0.1 2.7,-0.9 0.3,-0.3 2,-4.2 0.7,-1 0.6,-4.1 0.4,-0.7 1.9,-1.9 1.6,-1 1.1,-0.3 1.2,0.7 1.2,-0.7 1.4,-1.4 0.8,-2.9 1.2,-2.9 -0,-0.8 -0.5,-1.1 0.6,-2.7 1.6,-3.1 -0.1,-5.2 1.2,-0.8 1,-2.6 2,-3.2 0.4,-1.1 -0.2,-2.7 0.3,-0.9 1,-0.9 0.3,-1.1 -0.1,-0.6 0,0 0.3,-0.5 0.2,-1.9 0.7,-1.2 1.8,-2.1 0.6,-0.3 -0,1.7 -1.2,1.9 -0.5,2.3 2.4,0.4 2.2,1 3.9,0.4 3.1,1.7 4.1,1.4 0.6,-0.2 1.6,-5.9 1.5,-2.4 1.2,-1 1.1,1.3 1,1.9 1.1,3.7 0.6,3.1 1.1,0.1 0.8,-0.8 0.3,-1 0.6,-0.5 2.8,0.3 4.5,-0.5 0.2,0.7 -0.6,1.6 3.1,1.5 3.4,0.7 0.7,-0.1 0.5,-3.3 0.6,0 1.5,2.6 0.5,0.2 1.8,-0.9 2.5,-2.1 4.5,-1 1.6,0 2.6,-1.1 1.7,-1.3 5.4,-1.4 0,0 2.7,2.5 0,0.4 -1.4,1.1 -0.5,2.5 0.1,0.3 1.6,0.8 -0.1,0.9 -0.2,0.4 -1.6,1 -1.2,3.8 -0.1,1.6 0.6,3.5 1.7,3.5 3.2,2.6 0.1,0.5 -0.7,1.4 -0.1,0.7 0.7,1.7 0.2,1.3 -0.3,0.8 -1.5,2 0,0 -1,1 -3.2,-0.3 -0.9,-1.8 -2.4,-1.5 -1.2,1.5 0.6,3.8 -0.6,0.5 -0.4,0.1 -2.8,-1.1 -1.2,0.2 -0.4,0.3 -0.7,3.2 0.7,0.1 0.5,1.2 -0.6,0.9 -0.7,0.7 0,1.9 0.4,0.6 0.5,0.2 0.7,4.3 -0.5,0.5 -3.4,0.9 -2.3,1.5 z"/><path d="m 458.8,129.2 -0,0.3 -2,2.1 -0.4,0.2 -0,1.4 2,-1.7 0.7,-1.2 2.1,-1.6 0.9,-1.1 1,-6.3 1.1,-0.7 1.1,-0.1 1.7,-0.9 0.7,-0.1 0.5,0.1 0.1,1.6 -0.2,0.5 -1.4,1.9 -3.2,1.8 -0,0.7 0.7,0.1 0.5,-0.8 1.1,-0.3 0.2,0.8 -0.6,0.5 0.3,0.3 4.2,-5 0.9,0.3 2.6,-0.9 4,0.4 -0.5,-2.4 0.6,-0.2 2.4,0.1 1.8,0.4 2.6,1.1 1,0.1 2.1,1.4 1.4,0 1.3,1.3 1.9,1.3 2.5,0.6 1.2,-0.2 0.6,0.8 0.3,0.1 1.6,-0.1 2.5,0.7 0.3,-0.9 -0.7,-0.5 1.7,-0.4 0.6,0.1 -0.1,0.4 0,0 -0.5,1.4 0.2,0.7 0.6,0.5 -0.4,1.5 -1.8,2.3 -4.1,4 -3.3,0.5 -0.8,-0.2 -2.9,3.4 0,1.8 -0.9,1.8 -1.9,1.9 -0.8,2 -0.6,0.2 -0.8,1.1 0.4,1.9 1.2,0.8 0.4,1.3 -0.3,1.5 -1.1,2.9 1.6,2.8 0.6,3 -0.1,2.4 -0.2,0.6 -4.1,4.4 -0.2,2.5 0.1,2.1 0.5,2.3 1.8,2 1.6,0.9 0.2,0.5 0.1,0.8 -0.4,2.2 -0.3,0.4 -0.1,1.2 -0.5,1.5 -1.2,1.3 -2.3,0.3 -0.7,-0.3 -0.8,0 -2.4,0.9 -1.5,0.1 -2.5,-1.8 -1,-0.2 -1.5,0.2 -1,0.6 -1.1,0.3 -0.2,-0.3 -0.8,0.2 -0.5,0.2 -1.9,1.9 0,0.5 -0.6,0.9 -2,2 -2.3,0.9 -2.9,2.6 -1.3,0.5 -1.1,0 -1.7,1.5 -1.1,0.4 -2.6,0.3 -2.7,0.8 -2.1,1.9 -1,3 -0.4,3 -0.6,2.3 -1.4,2.7 -0.3,0.2 -0.3,0.8 -0.1,1.5 -1.2,2.5 -1.7,1.4 -0.7,2 0.7,1.9 0.5,3.2 1.7,3.1 -0,0.5 -0.8,1.4 -0.1,6.4 -1.1,2.5 -0.3,1.1 -0.1,1.9 0,0 -1.3,-0.7 -0.6,-0.8 -0.8,-0.5 -1,-0.3 -1.8,0.2 -0.7,-0.2 -1.4,-2 -1,-2.9 -2.1,-1.6 -0.1,-1.6 1.6,-1.8 -0.1,-0.5 -3.9,-1.9 -0.6,-1.1 -0.1,-1.7 -0.8,-1.6 -0.9,-0.7 -2.1,-0.3 -0.2,-0.4 0.3,-0.7 2.6,-2.5 -0.4,-1.3 0.7,-2.7 0.7,-1.4 0.6,-0.6 1.3,-0.5 3.4,-0.3 -0.4,-1.4 0.6,-3.3 -0.1,-1.8 -1.8,-1.2 -4.3,0.9 -2.1,1.3 -2.3,-3 -0.9,-0.8 -3,-4.2 -0.9,0.1 -0.8,-1.4 0.6,-1.2 -0.1,-0.9 -0.3,-0.3 -1.4,-0.2 -0.4,0.3 -1.9,-1.3 0.2,-0.7 1.8,-0.7 1.8,-2 0.3,-1.6 -0.3,-1 0.3,-2.4 1.8,-6.2 0,-0.4 -0.7,-1.1 -0.2,-1.1 0.2,-3.7 -0.6,-1.5 -0.5,-3.5 -0.8,-1 -3.4,-1.4 -1.2,-0 -0.3,-0.3 -0.1,-1 -0.6,-0.7 -1.7,-0.3 -1,0.5 -1.4,-0.1 -2.8,-1.5 -0.9,-0.1 -2,0.5 -2.6,1.9 -0.5,0.6 0,0 -0.5,-0.1 14.7,-11.8 2.4,0.2 1.2,-0.9 1.6,-2.2 0.4,-1.1 1.6,-1.2 0.6,-2.9 1.1,-0.5 2.4,-2.3 0.5,-1.2 0.3,-1.9 1.6,-4.7 2,-1.5 1.5,-1.8 0.8,-1.4 0.5,-1.3 -0.2,-1.8 0.8,-0.8 -1,-1.6 3.7,-3.1 -0.1,-1.6 0.5,-2.4 1.7,-1.6 0.4,-0.7 0.9,-3 0.1,-1.6 -0.4,-0.5 -1,0.2 -0.3,-0.5 0.1,-0.6 1.1,-0.1 0.6,-0.7 0.7,-4.4 -0.2,-1.4 0.5,-1 0.8,-0.5 0,0 0.6,0 0.2,-0.2 -0.1,-0.5 0.3,-0.7 0.6,-0.5 1.3,1 0.5,1.8 1.2,0.1 0.8,-1.4 0.6,2.9 1,0 0.3,-0.5 0.1,-0.9 0.8,-0 1.7,0.5 0.5,0.7 -1.4,1.7 0.7,0.7 0,0.6 1.2,-2 0.5,-1.5 0.5,0 0.4,1 0,0.6 -0.9,0.9 -0.3,1 0.1,2.7 0.3,0.3 0.5,0.1 0.6,-0.1 1,-0.9 -0.5,-1 0.1,-0.6 1.3,-1.4 1.1,-0.3 2.1,0.6 1.5,-1.1 0.1,0.9 -0.4,0.2 -1.1,1.5 0.6,0.6 0.1,-0.4 1.3,-0.6 0.6,0.8 -0.1,1.2 1.6,1.8 0.9,-0.4 1.6,0.7 0.8,2.4 -0.1,0.9 -2.2,2.7 -0.4,0.9 0.1,0.7 0.6,-1 1.8,-1.7 0.8,-0 0.9,0.8 0.5,1.9 -0.3,1.2 -1,0.2 -1,0.9 -1.2,1.5 0.1,0.8 -1.2,2.4 -0.6,3.5 0.2,0.3 0.9,0.2 z m 0.5,0.5 -0.1,-0.8 0.5,-1.5 -0.4,-1.1 0.1,-0.7 0.9,-1.2 0.6,-0.2 0.1,2.4 -0.2,1.3 -0.8,0.6 -0.7,1.2 z m -6.3,-25.8 -0.4,-0.5 -0.1,-0.6 0.8,-1.1 0.8,-0 0.7,0.4 0.1,0.3 -0.2,0.4 -1.7,1.1 z m 3.5,4.2 -0.3,-0.3 0.1,-0.5 1.1,-0.9 0.5,0.1 0.5,0.8 -0.1,0.6 -0.4,-0.2 -1.3,0.4 z m -14.2,-4.8 -0.2,-0.1 0.9,-3.6 0.3,0.1 0,0.2 -0.4,3.1 -0.7,0.3 z"/><path d="m 207.2,296.3 1.5,-1.4 4.1,-2.6 0.5,-2.5 1.4,-3.8 0.9,-1.1 1.6,-0.5 0.4,-0.4 0.6,-0.8 0.5,-2.3 1.7,-2 0.6,-2.2 0.1,-1.7 -0.6,-1.5 0,-2 -1.5,-3.3 -0.9,0 -0.6,-0.5 -0.4,-3.3 0.1,-1.3 1.4,-1.1 1.4,-1.8 0.2,-0.8 -1.4,-3.6 -1.1,-0.4 -1.1,-0.1 -3.5,0.1 -1.2,-1.1 0.2,-0.6 -17.2,-0.1 0.9,-9 -1.5,-2.8 -0.3,-1.8 0,-0.8 1,-3.5 -0.4,-1.9 0.9,-1.7 -0.8,-2.3 -0.1,-1.4 -0.3,-0.6 -0.8,-0.5 -0.1,-0.3 1.3,-5 0.8,-1.4 -0.6,-1.2 -1.4,-1 0,0 47.9,-0.3 1.2,-0.7 1.2,-5.2 1.4,-4.2 -0.5,-1.9 -0.7,-1.4 -0.1,-0.8 0.4,-0.8 0.9,-0.6 1.2,-1.8 0.3,-1 -0.3,-0.8 0.1,-0.8 0.2,-0.6 1.2,-1.2 0,0 1.2,1.1 2.5,4.1 0.4,1.8 1.4,4 1.3,1.9 0.8,1.6 -0.2,2.4 0.5,2.4 0.7,2.2 1.5,1.1 3,2.8 3.4,1.7 0.2,0.9 -0,1.1 0.2,0.5 0.9,0.4 0.8,-0.2 1.6,0.5 0.5,0.7 0.2,1.1 0.3,0.3 1.4,-0.5 3.7,1.5 34,2.4 63,3.5 0,0 -0.7,1 -0.6,1.9 -1.1,1.3 -0.4,3.1 -0.4,0.8 -0.4,0.3 -1.9,5.3 -0.5,3 -0,3 -1.9,6 0.1,0.9 1.4,1.3 -0.2,0.9 -0.8,0.9 -0.1,0.5 1.1,2.3 -0.5,3.3 0,1.6 0.5,0.6 0.4,3 -0.7,2.8 1,3.3 1,0.5 0.8,0 0,0 0.1,0.6 -0.3,1.1 -1,0.9 -0.3,0.9 0.2,2.7 -0.4,1.1 -2,3.2 -1,2.6 -1.2,0.8 0.1,5.2 -1.6,3.1 -0.6,2.7 0.5,1.1 0,0.8 -1.2,2.9 -0.8,2.9 -1.4,1.4 -1.2,0.7 -1.2,-0.7 -1.1,0.3 -1.6,1 -1.9,1.9 -0.4,0.7 -0.6,4.1 -0.7,1 -2,4.2 -0.3,0.3 -2.7,0.9 -2.6,0.1 -1.4,2.6 -1.8,1 -0.1,1.5 -0.8,1.4 -1.3,1 -0.5,1 -0.3,1.9 -1.3,2 -1.9,1.8 -2,0.8 -0.7,0.8 -0.4,2.9 -2.5,3.9 -0.4,3.4 0.2,0.7 1.4,2.2 0.2,3.4 0.9,2.2 0,0 -1.6,0.3 -1.2,-0.6 -0.9,-0.1 -2.7,0.1 -0.6,0.6 -4.6,-0.3 -1.7,-1.3 -1.3,-0.1 -0.1,-0.5 0.2,-0.5 1.7,-2.8 1.8,-0.7 1.2,-6.6 -1.3,0.1 -5.6,6 -1,-0.1 -2.1,0.9 -1,-0 -0.2,-0.3 -0.3,-1.4 -1.6,-1 -2.4,-0.1 -1.4,0.6 -0.5,0.8 -1.3,0.8 -4.5,0.6 -1.2,-0.6 -1.3,-1.1 -3,-1.2 -0.8,-1 -0.3,-0.9 -0.7,-0.3 -2.6,-0.5 -2.8,-1.3 -0.8,-1.1 -1.3,-0.2 -2,0.5 -1.4,1.3 -1.7,0.5 -0.8,-0.3 -1.6,0.2 -2.6,-0 -1.4,1.4 -0.1,1.2 -2,3 -2,2 -5.6,2 -2.1,-1.5 -1,-1.1 -0.7,-0.2 0,0 -0.7,-0.7 -0.3,-0.8 0.5,-0.7 -2.4,-2.1 -1.3,0.6 -0.5,-0.1 -1.2,-0.7 -0.5,-0.7 -2,-1.4 -1.9,-0.8 -0.3,-0.3 -0.3,-1.1 -0.2,-2.9 -0.6,-1.8 -0.2,-3.7 0.9,-1.6 1.1,-1.1 0.3,-1.8 -0.1,-1.9 -1,0.1 -0.4,0.6 -0.4,0.2 -26.9,-1.1 -1.1,-12.7 -5.4,-6.1 4.9,-0.1 -0.3,-7.5 -2.6,-5.3 -0.5,-2 0.3,-1.1 0.6,-0.6 0.7,-1.3 -1.4,-2.9 -3.1,-1 z"/><path d="m 359.2,400.1 -0.4,2.5 -0.3,0.4 -1.5,0.8 -1.3,0 -0.5,0.2 -1.2,1 -2,2.7 -0.7,0.7 -1,0.3 -0.6,1.7 -0.2,2.9 -2.6,3.6 -1,0.5 -0.2,0.4 0.3,1.9 -0.1,0.9 -1.2,2.3 -2,2.3 0.3,0.8 -0.3,1.2 -1.4,1 -0.4,1.2 -1.7,1.7 -1.3,2.4 -1.9,1.9 -7.6,4.5 -1.3,1.1 -0.7,1.5 -0.8,1.1 0,0 -5.4,2.3 -1.1,0.8 -0.9,2.3 0,1.1 -1.4,3.6 -0.7,0.7 -1.7,1 -1.1,0.3 -0.3,0.3 -1.6,7.9 -0.4,0.8 -2.4,1.6 0,0 -2.5,-2.3 -3.4,-1.9 -4,2 -0.7,0.8 -1.7,0.5 -2.6,0.4 -2.4,-0.5 -1,-0.7 -0.5,-4.3 -0.3,-0.7 -0.9,-0.9 -0.2,-2.5 0.5,-1.3 -0.6,-0.8 -0.1,-0.4 0,-2.9 -0.9,-2 -0.6,-2.7 -0.1,-0.7 0.6,-1.4 0,-1.6 -1.6,-1.1 -0.4,-0.8 -0.2,-2.2 -1.6,-1.8 -2.2,-0.3 -1.5,0.3 -1.8,-0.3 -2.5,-2 -0.6,-1.5 -1.5,0.3 -2.2,2.7 -1,-0.6 -1.7,0.8 -1.1,0.2 -1.7,-0.7 -2.6,-0.5 -3.5,0.2 -3.7,-0.7 -0.5,-0.9 -2,-0.1 -0.9,0.5 -2.5,-0.9 0.9,-7.3 -0.4,-2.4 0.6,-1.4 1,-1.5 0.6,-6 -0.7,-2.3 -0.1,-1.7 -0.8,-1 -0.4,-0.1 -0.5,0.7 -0.6,-3.3 -0.8,-1.9 -1.2,-2 -0.3,-1.8 4,-2.3 0.8,-0.9 -4.2,-3.9 5.4,-11.4 1.1,-0.1 -0.3,-2.1 -0.7,-0.1 3.2,-10.3 0.7,-1.2 -3.1,-5.8 0,-1.9 0,0 0.7,0.2 1,1.1 2.1,1.5 5.6,-2 2,-2 2,-3 0.1,-1.2 1.4,-1.4 2.6,0 1.6,-0.2 0.8,0.3 1.7,-0.5 1.4,-1.3 2,-0.5 1.3,0.2 0.8,1.1 2.8,1.3 2.6,0.5 0.7,0.3 0.3,0.9 0.8,1 3,1.2 1.3,1.1 1.2,0.6 4.5,-0.6 1.3,-0.8 0.5,-0.8 1.4,-0.6 2.4,0.1 1.6,1 0.3,1.4 0.2,0.3 1,0 2.1,-0.9 1,0.1 5.6,-6 1.3,-0.1 -1.2,6.6 -1.8,0.7 -1.7,2.8 -0.2,0.5 0.1,0.5 1.3,0.1 1.7,1.3 4.6,0.3 0.6,-0.6 2.7,-0.1 0.9,0.1 1.2,0.6 1.6,-0.3 0,0 0.2,1.8 -0.3,2.6 0.2,1.1 0.3,0.4 0.7,0.2 1.1,-0.7 2.3,0.9 0.1,0.4 -1.3,1.8 -0.6,1.2 -0.3,0.8 0.1,0.3 3.8,0.7 2.8,-0.2 2.7,1.7 1.1,0.2 1.4,0.7 0.7,0.6 3.1,1.6 0.7,0.8 3.4,1.3 1.5,0 1.9,0.4 1.6,1.6 3.1,0.6 2.7,2.2 0.2,0.5 0,0 -0.6,0.3 -1,4.2 0.6,3.2 z"/><path d="m 527.8,365.6 -0.9,-0.6 -2.5,-0.8 -1.6,0.1 -1.1,0.3 -0.8,0.6 -2.2,0.3 -1.3,-0.1 1.7,2.3 -0,0.8 -1.1,-0.1 -1.1,-0.7 -0.3,0 -2.2,1.3 -1.2,1.9 0.3,0.7 1.3,0.7 0.5,0.7 -0,1.9 -0.3,1.5 0.2,0.4 1.3,0.3 0.2,1.7 -0.3,0.4 -0.9,0.2 -1,-0 -0.8,-0.3 -1.5,0.1 -0.4,0.6 0.5,0.7 0.8,0.3 0.5,-0.3 0.5,0.1 1.1,1.3 1.3,2.8 0.3,2.4 -0.5,3 -1.7,2.1 -1.2,0.9 -0.3,0.4 -0.2,1.7 -0.9,2.3 -1.1,1.3 -1,3.2 -0.6,0.3 -5.2,-0 -1.7,2.1 -0.2,0.4 0.6,3.1 -0.6,1.3 -0.4,2.3 0.3,0.1 0,0 -2.5,2.4 -1.2,0.3 -0.6,0.5 0.7,0.7 -2.4,6 -1.9,3.7 -0.1,0.8 1.4,0.1 0.3,0.6 -0.2,0.5 -2.5,1 -9.5,4.5 -1.4,0.2 0,-0.5 -0.5,-0.2 -2.5,-0.3 -0.6,0.1 -1.6,0.9 -1.3,0.2 -3.2,0.1 -0.4,-0.3 -0.5,0.1 -4.1,1.8 -1.1,0.8 -1.7,0.8 -0.5,-0.3 -2.6,0.2 -2.9,1.3 -2.4,0.7 -0.7,0.5 0,0 -1.3,0.7 -2.2,0.2 -1.9,1 -1.2,1.2 -1.8,0.7 -2.4,0.3 -2.3,-0.1 -0,-0.5 0.3,-0.5 -0.1,-0.3 -1.2,0.3 -0.2,2.3 0.2,0.2 -0.1,0.8 -0.8,1 -1.3,0.3 -0.6,-0.4 -3.6,1 -0.2,-0.5 -2,0.2 -1.1,-0.3 -2,-3.3 1.2,-0.7 -0.5,-1.7 -1.8,-0.8 -1.8,-1.2 -0.7,-1.6 0.5,-1.6 0.2,-3.5 -0.3,-2.9 1.9,-2.7 0.7,-2.2 0.1,-1.3 -0.2,-0.4 -3.7,-1.3 -1,0.1 -0.3,0.4 -0.8,0.3 -1.6,0.1 0,-0.8 -0.8,-2 -1.3,-1.8 -0.4,-2.2 -0.3,-0.6 -0.8,-0.7 0.2,-1.9 1.5,-2 0.1,-0.6 -0.4,-1.6 -1.9,-1.2 -0.6,-0.6 0.3,-2.4 0.6,-1 -0.2,-1 -3.3,-3.4 -1.3,0.3 -0.8,0.6 -1.6,-0.8 -2.4,0.1 -0.3,0.6 0.2,0.5 -0.4,1 -2.8,0.7 -1.1,-0.4 -1.5,-1.4 -1,1.3 -8.2,0.7 -0.5,0.5 -0.5,1.2 0.3,2.5 -0.4,0.4 -1.2,-0.5 -0,-2.8 -0.3,-1 -0.4,-0.4 -0.6,-0.1 -0.3,0.2 -0.4,1.1 -0.7,0.9 -0.5,0.3 -0.6,-0 -1.2,-2.1 -0.3,-1.4 0.1,-0.9 -1.7,-0.8 -2.2,-1.4 -2,0.6 -1.6,-0.2 -1.7,0.3 -4.3,-1 -2.5,-0.1 -1.7,-1.6 -0.8,-0.1 -1.5,0.6 -1.4,1.7 -1.9,0.4 -2.1,1.1 -1.2,1.1 0,0 0.3,-2.6 -0.6,-3.2 1,-4.2 0.6,-0.3 0,0 0.9,0.5 0.4,-0.2 0,-0.3 -0.6,-0.6 0.6,-1.9 1.6,-2.1 0.9,-0.7 0.5,-0.1 0.8,0.2 0.8,-0.3 0.8,-1.3 -0.1,-1 1.2,-2.5 1.4,-2.1 2.2,-0.5 2.5,-1 3.7,0.6 3.2,-1.6 1.5,0.3 1.3,1.4 0.3,0 2.9,-2.9 4.1,-2.6 2,0.9 3.9,-0.2 1.5,0.3 1.8,-0 0.6,-0.1 0.6,-0.5 4.3,1.9 0.7,0.8 4.9,-2.7 0.5,-1.1 0.9,-0.9 1.2,-0.2 3.1,-2.1 -1.2,-3.5 0.5,-1.9 0.7,-0.9 0.2,-0.7 -0.2,-1 -0.5,-0.6 -1.6,-0.6 -0.9,0.5 -1.1,-1.1 0.4,-2.1 3.2,-3 2.3,-2.7 0,-0.6 -1.6,-4.6 -1.4,-1 -0.8,-0.3 -0.8,-1.2 0.4,-1.5 1,-1.3 0.7,-1.6 -0.3,-1.6 0.5,-1.5 1.3,-0.1 2.3,-1.5 3.4,-0.9 0.5,-0.5 -0.7,-4.3 -0.5,-0.2 -0.4,-0.6 -0,-1.9 0.7,-0.7 0.6,-0.9 -0.5,-1.2 -0.7,-0.1 0.7,-3.2 0.4,-0.3 1.2,-0.2 2.8,1.1 0.4,-0.1 0.6,-0.5 -0.6,-3.8 1.2,-1.5 2.4,1.5 0.9,1.8 3.2,0.3 1,-1 0,0 0.5,2.4 -1.4,3.4 0.4,0.2 1.3,-0.9 0.7,-1 0.7,-0.1 2.1,0.4 1,-0.8 1.9,-2.6 1,0.1 1.4,-0.5 1.8,-1.6 0.9,-1.2 2,-0.4 3.4,-1.9 0.6,-1.1 4.3,-3 3.8,-1.6 1.8,0.1 1.2,0.5 2.2,0 2.3,0.5 0.8,0.5 -1.3,2.7 -0.1,0.9 0.3,1.5 0.6,0.5 5.3,1.5 0.6,-0.2 0.8,-1.1 1.9,-0.9 1.8,-0.3 2.7,0.8 1.1,0.5 4.3,3.6 1,-0.2 2.2,1.6 2.5,1.2 0.9,0.2 0.5,-0.2 1.5,1.2 4.4,-1.2 0.4,0.2 6.5,6.2 0.4,4 0.6,-0.2 2.6,0.5 1.5,-0.5 1.3,-1 2,0.1 2.7,0.6 2.3,1.1 2.2,0.6 2.1,-0 2.8,2.5 0.7,0.4 0.9,0.1 0.8,1 0.4,1.2 -1.5,3.1 -5,4.2 -0.1,2.6 0.6,1 0,0.4 -1,0.7 -2.5,-0.2 -0.8,0.9 -0.8,3.3 -0.5,4.4 0.2,0.3 0.3,-0.2 0.2,-0.5 0.6,-0.2 0.6,1.2 -0.2,1.5 0.1,0.5 4.1,3.1 0.5,1 0,0.5 -0.7,1.4 z"/><path d="m 371.3,235.5 -63,-3.5 -34,-2.4 -3.7,-1.5 -1.4,0.5 -0.3,-0.3 -0.2,-1.1 -0.6,-0.7 -1.6,-0.5 -0.8,0.2 -0.9,-0.4 -0.2,-0.5 0,-1.1 -0.2,-0.9 -3.4,-1.7 -3,-2.8 -1.5,-1.1 -0.7,-2.2 -0.5,-2.4 0.2,-2.4 -0.8,-1.6 -1.3,-1.9 -1.4,-4 -0.4,-1.8 -2.5,-4.1 -1.2,-1.1 0,0 -0.6,-0.6 -0.1,-2 -0.6,-1.3 -1.6,-1.6 -1.1,-0.6 -0.4,-0.6 -0.8,-2.3 0,-1.1 0.6,-1 1.4,-1.1 0.8,-1.3 29.9,-64.2 -1.8,-1.7 0.1,-0.8 -0.2,-0.5 -1.4,0.3 -0.8,0.6 -1.9,-0.8 -1.1,-2.2 -2.7,-1.4 -1.3,-1.3 -0.1,-0.6 -1.3,-0.8 -1.4,-0.1 -2.3,-0.7 -2.4,-1.3 -1.9,-0.7 -1.4,-1.1 -0.6,-0.9 -4.6,-2.5 -4.6,-3.8 -0.3,-0.4 -0,-0.9 -0.6,-1.8 -1.8,-1.2 -0.7,0.2 -0.4,-0.2 -1.8,-2 0.1,-2.1 0.3,-0.7 -0.2,-0.4 -1.7,-0.8 -0.2,-0.7 -0.2,-2.3 0.4,-1.4 -0.4,-4.9 0,0 -1.6,-17 0,0 0.8,0.3 0.4,0.6 -0,0.5 0.5,0.4 0.9,0.3 1.4,-0.7 0.5,-0.8 2.7,0.2 0.8,-1.1 -0.5,-1.8 1.8,-0.4 1.4,-1.6 2.6,1 1.9,0 0.5,-1.5 3.3,-1.6 2,0.4 1.2,-0.1 0.5,-0.3 1.2,-1.5 0.4,-1.4 1.5,-1.1 0.9,-0.1 0.7,0.5 2.1,-1.1 0.4,0.1 0.4,1 0.7,0.5 2,0.5 1.6,0.3 0.6,-0.6 1.7,-0.4 0.8,0.3 0.8,-0 0.9,-0.3 2.2,0.3 4.7,1.4 1,-0.1 1,-0.9 -0,-2.3 -2.1,-2.5 -1.2,-0.6 0.5,-1.7 1.3,-1.4 0.3,-1.1 0.3,-0.2 0.7,0.2 0.8,0.8 2.4,1.1 11.6,-2.3 1.6,1.7 1,0.1 0.4,-0.3 0,0 0.6,0.6 0.4,2.3 -0.6,1.3 -0.3,4.5 0.2,1.4 0.3,0.5 1.2,0 1.1,-0.3 3.4,0.4 1.3,0.5 1.9,1.1 0.7,0.8 0.5,1.3 1.2,0.1 1.1,0.8 0.8,1 0.8,0.3 1.3,-0.1 0.4,-0.4 0.9,-0.1 2.8,2.7 0.7,-0 0.5,1.2 -0.7,0.2 -0.2,0.7 0.8,2.8 2,2.3 2.6,0.7 0.2,0.3 -0.4,3.1 0.2,2.1 0.7,1.5 0.6,0.6 0.6,1.8 -0.1,1.6 1.5,3.5 0.8,0.2 0.8,-0.4 2.9,3.3 -0.1,2.4 0.4,0.9 0.9,0.2 0.3,0.5 0.3,1.6 -0.2,0.7 0.1,1.3 1.9,1.4 0.4,1.5 1.4,1 2.8,0.7 1.3,-0.1 0.8,-0.3 0.9,0.1 0,0 -0.5,0.7 0.3,1.6 -0.2,0.5 -1.3,1.1 -1.4,0.2 -0.5,-0.2 -0.8,-0.8 -0.7,-0.1 -3.4,1.6 -0.4,0.5 -1.6,0.7 -0.6,-0 -1.6,0.6 0,0.6 6.5,-1.1 0.9,0.7 0.1,0.5 0,0.7 -0.6,0.5 0.3,0.4 0.6,-0.2 0.9,-1 1,-0 0.5,-0.3 0.6,0.1 1.1,-0.4 1.1,-0.6 3.3,-2.3 1.5,-0.3 1.8,-0.8 3.2,-1.8 0.5,-1 0.7,-0.5 2.1,-1 0.7,-0.7 -0.3,-0.7 0.2,-0.4 1.1,-0.3 1.1,0.1 0.4,0.2 0.4,3.8 -0.5,2.6 0.3,1.6 0.8,1.6 1.3,1.4 0.3,1.6 -0.1,0.5 -1.8,1.8 -0.5,0.1 -0.9,-0.5 -1.8,-0.5 -1.3,-0.3 -0.9,0.1 -2.1,-1 -0.3,-1.1 -0.9,-0.5 -2.3,3.8 -0.6,2.4 0.7,3 0.5,0.6 0.9,0.6 -1,-1.1 -0.4,-2.7 0.1,-0.5 2.6,-4.2 2.3,1.2 0.1,0.5 2.5,2.5 -0.3,2 -0.7,0.6 0.4,2.3 0.5,1.1 1.1,0.8 0.7,0.1 0.5,0.5 -0.3,-0.6 -0.8,-0.2 -1.2,-1 -0.2,-0.7 0.3,-4.2 0.8,-1.2 1.4,0.7 0.8,1.2 -0.1,0.8 1.2,0.9 0.3,-0.3 -1,-1.3 -0.9,-2.1 0,-0.4 2.3,-2.3 1.6,0.1 1.9,0.6 0.3,0.6 -0.6,0.6 0.3,0.3 0.5,0 1,-0.2 1.3,-0.9 4.1,-1 0.8,0.2 1.7,1.1 3.2,-0.4 1.1,-0.4 1,-1 1,-0.6 1.7,-0.5 0.8,0.1 0.1,0.8 -2,4 -0.2,1.5 -0.5,1.1 -0.8,1 -0,0.9 0.6,1.4 -0.3,2.5 0.9,-1.2 0,-1.4 1.5,-3 1.1,-3.2 1.1,-1.6 0.3,-0.3 0.8,-0.1 0.6,-0.3 1.8,-0.2 0.9,-1.4 1.5,-1.7 1.4,-2.3 0.5,-0.5 0.8,0.5 0.6,-0.5 1.6,2.3 1.2,0.6 -0.1,-0.7 -0.3,-0.8 0.6,-1 3.5,-0.5 -1,-0.3 -3.5,0.5 -0.3,-0.2 0.3,-2.4 0.5,-0.3 0.7,0.4 1,0.1 1.1,-3.1 -0.7,-1.4 0,-0.7 1.2,-1.8 2.8,-2.5 0.4,-0.1 1.1,1.1 2.9,-2.1 0.5,-0.1 0.4,0.5 0.1,0.6 -0.3,0.7 1.1,-0.2 0.8,-0.6 0.4,-0.8 0.6,-0.2 0.3,0.1 0.7,1.4 1.3,1.2 0.2,-0.6 -0.1,-0.4 -1,-0.5 -0.1,-0.3 -0.1,-1.2 0.2,-0.4 0.4,-0.2 2.3,0.3 1.2,0.7 0.6,1 1.6,0.7 1.6,-0.8 0.5,2.1 -0.5,0.3 -0,0.6 0.9,-0.5 1.2,-2.4 0.4,0.2 -0.2,1.3 0.4,0.4 2.5,-0.3 0.5,0.7 0.5,1.7 -0.6,0.9 0.8,-0.5 0.3,0.4 1.9,0.1 3.5,-1.2 -0.3,1.6 -0.8,1.8 1.5,-0.5 0.6,-0.6 0.6,1.6 0,0 -0.8,0.5 -0.5,1 0.2,1.4 -0.7,4.4 -0.6,0.7 -1.1,0.1 -0.1,0.6 0.3,0.5 1,-0.2 0.4,0.5 -0.1,1.6 -0.9,3 -0.4,0.7 -1.7,1.6 -0.5,2.4 0.1,1.6 -3.7,3.1 1,1.6 -0.8,0.8 0.2,1.8 -0.5,1.3 -0.8,1.4 -1.5,1.8 -2,1.5 -1.6,4.7 -0.3,1.9 -0.5,1.2 -2.4,2.3 -1.1,0.5 -0.6,2.9 -1.6,1.2 -0.4,1.1 -1.6,2.2 -1.2,0.9 -2.4,-0.2 -14.7,11.8 0.5,0.1 0,0 2.3,0.8 1.9,-0.2 1.3,0.1 1,1.7 0.4,0.3 0.9,0.1 1.3,1.2 -0,0.6 -0.4,0.7 -0.7,0.4 -1,0.1 -0.3,0.3 0.1,1.4 1,1.3 -0.9,2.8 -0.6,0.5 -1.5,0.5 -0.3,0.5 0.3,1.2 -0.2,1.3 -1.3,0.1 -1.5,1.3 -0.8,1.3 0.1,1.5 -0.2,0.5 -2.5,1.2 -3.4,1.1 -2.5,1.8 -0.2,0.3 0.4,2.2 0.1,2.7 -1.3,2.1 -1.4,1.7 -0.1,0.6 0.2,0.9 0.6,1 1.7,1.7 0.8,0.3 0.1,0.3 -0.7,4 -1.8,5.2 -1.1,0.8 -1.7,3.2 -0.2,1 -0.9,1.5 -0.7,0.8 -1.1,0.2 -1.4,0.9 -1,1.9 -1.2,1.7 -1.2,1.1 -1.1,1.6 -1.1,4.5 -1.6,3.7 z m 21.2,-130.3 -4.5,2 -3.4,0.5 -2,-0.3 -0.7,1.1 -1.8,1.2 -0.7,-0.6 -0.6,-1.5 -0.2,0.3 0.4,1.2 -0.3,0.8 -0.7,0.4 -3.8,-1.6 -0.8,0.7 -4.2,1.3 -3.2,-0.6 -0.8,-0.6 -0.2,-1.9 -0.2,-0.4 -1.1,-1 -1.1,-1.6 -0.2,-1.8 0.5,-2.8 0.6,-0.4 1.8,0.4 0.9,-0.7 0.1,-0.6 -1.3,0.4 -1.2,-0.1 -0.9,-0.7 -0.2,-1.1 0.3,-5.1 0.7,-0.8 0.3,0.8 1.8,0.6 0.6,-0.1 -0.5,-0.4 -1.3,-0.2 -0.9,-2.2 0.4,-1.7 0.9,-2 1.3,-1.3 1,-0.6 1.3,-0.5 1.3,-0.1 3.5,0.5 7.2,1.8 3.7,-0.5 0.1,-0.3 1.1,-0.6 2.2,-0.4 2.9,0.3 2.8,0.8 6.5,0.8 0.6,0.5 -0.1,1.2 -0.7,0.7 -0.7,1.5 -0.4,2.6 -0.9,3.3 -1.3,0.7 -0.3,0.7 0.2,1.2 -2,2.6 -1.4,3.5 -0.5,0.5 z m -47.2,-0.2 -0.8,-0.5 1.1,-2.3 -0.1,-1.8 0.3,-0.2 2.3,-0.5 0.9,-0.9 0.1,-0.5 -0.2,-2.3 0.9,-2.6 1.3,-1.5 2.3,-1.5 2.9,-0.2 0.7,2.4 -1.1,2.2 -0.8,3 -1.1,0.7 -1.3,2 -0.8,0.7 -4.9,3.3 -1.6,0.4 z m 28.5,-22.9 -1,-0.3 -2.5,0.1 -0.8,-0.2 -0.3,-0.3 -0.4,-1.1 0,-1.2 1.5,-0.4 1.9,0 2.2,-1.3 4.8,-0.6 0.8,0.3 0.7,0.7 -0.2,1 -2.6,1.4 -1.8,2.5 -1.1,0.5 -1.3,-1.1 z m 4.8,0 1.9,-1.2 2,0 1.6,0.6 0.5,1 0.1,0.6 -0.9,0.8 -2.9,0.3 -1.2,0.3 -2.3,-0.9 -0.2,-0.5 1.3,-1 z m -17,4.4 -0.5,-0.3 -0.6,0 -1.5,-0.7 0.2,-1.2 0.6,-0.9 1.9,-0.4 2.4,-0.9 1.3,0.1 0.8,0.7 0.1,0.1 -1.9,1.6 -1.1,0.3 -1.7,1.4 z m 9.4,-9.7 -0.8,-0.3 -0.2,-1.7 0.1,-0.6 1.2,-1.3 2.5,-0.9 0.3,0.1 0.5,0.7 0,0.9 -1.9,2 -1.6,1.1 z m -13.8,20.2 -0.1,-0.4 0.2,-0.9 1,-2.8 2.6,-1.7 0.7,-0.3 0.7,0.1 -0.2,1.8 -1.6,0.4 -1.6,2.2 -1.8,1.6 z m 10.9,-17.6 -1.2,-0.3 -0.3,-0.5 0.9,-1 0.7,-4 0.9,-1.2 0.3,0.1 0.1,0.3 -0,2.5 0.6,1.9 -0.3,0.9 -1,0.4 -0.6,0.8 z m -14.8,10.2 -0.3,-0.2 0.1,-0.6 0.6,-0.4 1.2,-1.7 0.8,-1.5 0.7,-0.7 1.4,-0.5 -0.2,1.5 -0.4,1 -1.7,1.7 -2.2,1.5 z m 13.9,-7 -0.6,-0.1 -0.8,-0.7 -1,-1.6 -0.1,-0.4 0.2,-0.3 0.8,-0.6 1.9,0.8 0.3,0.4 0.2,2.1 -1,0.4 z m -5.4,30.6 -0.7,-0.1 -0.9,-0.5 -0.7,0.5 -0.8,-0.3 -1.7,-1.7 0,-0.6 1.3,-0 3.1,1.3 0.3,1.5 z m -21.1,-5.5 0,-1 -0.2,-0.3 0.6,-1 2.4,-0.9 0.8,0.4 0.9,0.9 -0.3,0.3 -1,0.5 -2.5,0.4 -0.6,0.7 z m 12.7,-6.7 -0.2,-0 0,-0.3 0.5,-0.9 1.8,-1.6 0.4,-1.2 0.1,-1.3 0.2,-0.3 0.3,0.4 0,1.5 -0.9,2.7 -0.6,0.6 -1.7,0.5 z m 6.3,-9.9 1.6,-3 0.9,-0.2 0.7,0.2 0.3,0.9 -0.6,0.7 -2.9,1.4 z m 31.4,19 -0.8,-0.3 -0.3,-1.1 1,-1.7 1.1,-0.3 0.2,0.1 -0,0.7 -0.7,2.2 -0.4,0.4 z m -33.5,-19.5 -0.5,-0.2 0.3,-2 1.3,-1.8 0.2,0 1.3,0.9 -0,0.3 -1.6,0.6 -1.1,2.2 z m 2.2,5 0.7,0 -0.4,0.5 -0.9,0.3 -0.1,1.1 -0.8,0.7 -1.7,0.8 -0.2,-0.2 0.3,-0.8 0.5,-0.6 1.7,-1.7 0.9,-0.1 z m -22.6,10.2 -0.6,-0.2 -0.1,-0.3 0.4,-0.4 3.6,-1.6 0.5,0.7 -0,0.2 -1.4,0.7 -2.5,0.9 z m 63.5,-4.8 -1,-0.2 -0.8,-0.8 0.9,-1.2 1.3,-0 0.2,1.2 -0.1,0.6 -0.5,0.5 z m -37.3,-18.9 -2.4,0.7 -0.6,0 -0.2,-0.2 1,-1 1,-0.5 1,0.2 0.4,0.3 0.1,0.2 -0.1,0.2 -0.4,0.1 z m -5.3,8.6 -0.1,-0.8 0.3,-0.5 2.5,-1.5 -0.9,2 -0.8,0.6 -0.9,0.1 z m 2.1,4.5 -0.5,-0.1 -0.1,-0.2 0.8,-1.5 1.2,0 -0.1,1.4 -1.3,0.5 z m 28,15.8 -0.3,-0.2 0.9,-1.6 0.7,-0.4 0.2,0.8 0.5,0.4 -0.3,0.5 -0.4,0.3 -0.6,-0.2 -0.7,0.4 z m -26.7,-23.3 -0.9,-0.1 0,-0.2 2.4,-1.8 0,1 -0.2,0.6 -0.3,0.3 -1.1,0.2 z m 67.5,10.2 -0.4,-0.5 0.2,-0.8 1,-0.9 0.3,0.1 0.2,1.8 -1.3,0.3 z"/><path d="m 610.7,199.4 -2.5,-2.1 -0.8,-0.3 -2.6,-0.2 -2.3,1.1 -1.5,1.3 -0.5,1.8 -1.9,1 -2,0.5 -1.1,-0 0,0.6 -0.8,0.5 -2.2,0.3 -3.9,-0.3 -1.6,0.9 -0.6,0.6 -1.8,0.1 -0.9,0.7 -0.5,0.8 0.4,0.7 0,0.5 -0.4,0.5 -1.8,1.5 -1.3,0.2 -1.6,0.8 -1.6,-0.8 -0.9,-0.9 -0.3,-2.2 0.2,-0.5 -0.2,-0.3 -1.1,-0.3 -0.4,0.3 -1.5,0.3 0,-0.5 2.5,-2.6 0.2,-0.4 -0.7,-1.9 -0,-0.5 0.4,-0.8 3,-1.1 0.1,-0.3 -0.5,-1.4 -3.5,-1.9 -1.5,0.4 -2.2,1.3 -0.9,1.5 -1.5,0.9 -1.1,0.3 -2.7,1.9 -1.5,1.6 -1.6,0.2 -2.6,1 -0.8,-0.3 0.1,-0.7 -0.6,-1.2 -0.4,-0.1 -0.9,0.7 -1.5,0.3 -1,-0.3 -1.4,-1.9 -0.4,-0.1 0,0 -0.2,-0.3 1.2,-1.1 1.6,-3.5 -0.3,-1.2 -0.7,-0.1 -1.2,-0.9 0,-1.7 -0.3,-0.7 -0.6,-0.3 -0.2,-0.4 0.1,-0.9 0.2,-0.4 1.1,-0.6 0.7,-1.3 -0.5,-1.3 1,-3 0.8,-1.1 0.1,-0.5 0,0 0.6,-0.5 1.9,1.6 0.9,0.4 2.9,0.6 1.2,-1.1 3.2,-1.7 0.8,-0.7 0.1,-1 0.4,-0.9 3.2,-1.2 1.4,-0.1 3.3,-1 0.6,0.1 0.5,0.4 0,1.2 -3,3.2 -0.4,1 -0.4,1.7 -0.4,0.4 -0.8,0.3 -0.2,0.3 -0.1,1.7 3.5,0.5 0.3,0.2 0.3,1.4 0.3,0.2 3.1,-1.3 1.8,-0.1 1.9,0.3 0.9,1.2 -0.5,1.5 0.8,0.7 2.4,-0.9 0.5,-0.7 0.6,-1.2 -0.5,-0.9 -0.2,-1.4 0.5,-0.6 1,0.3 -0.5,-1.5 -0.7,-0.8 0.3,-1.5 1.8,-1.4 1.4,-0.1 0.4,0.4 -0.1,1 0.6,0.5 3.4,0.4 0.5,0.3 5.8,-0.4 2.2,0.3 2.5,1.1 1,-0.4 3.5,0.2 0.9,-0.2 0,0 0.1,2.4 1.4,4.4 0.1,0.6 -0.2,0.9 -0.4,0.5 -0,0.9 0.6,-0.7 0.5,-1.5 0,2 0.6,1 -0.3,5.2 -0.4,0.6 z"/><path d="m 397,499.7 -5.2,-0 -0.3,0.4 -1.7,0.2 -0.8,-0.1 -0.1,-0.4 -1.6,0.6 -1.4,1.4 -3.4,2.1 -1.4,-0.2 -1.2,-0.6 -3.1,-2.6 -1,-0.4 -0.8,-0 -2.8,0.7 -2.3,0.2 -0.8,-0 -1.4,-0.8 -1.1,0.1 -1.5,0.7 -0.6,1.5 -0.7,0.9 -1.9,1 -3.6,-0.4 -2,1.1 -0.7,0.8 -0.7,1.6 0.8,3 -0.9,0.9 -0.9,0 -0.8,0.4 -0.2,0.5 -1.3,-1.9 -4.3,0.1 -3.8,-0.4 -1.6,-1.2 -0.2,-0.4 -1,-0.6 -4.3,-0.4 -5.3,-1.7 -2.3,0.6 -2.7,-0 -2,-1.4 -0.3,-0.5 -1.1,-0.2 -0.5,-0 -0.7,0.4 -3.6,-0 0,0 -0.2,-1.2 -2.5,-4.2 0,-2.6 -1,-2.9 -3.4,-2.4 -1.1,1.1 -2.1,-0.1 -1.1,0.4 -1.1,0.9 -1.5,-1.1 -0.8,0.1 -0.3,-2.2 0.7,-1.6 1.1,-1.3 1.2,-2.2 0.1,-0.3 -0.5,-0.8 0,-1.2 0.9,-3.6 1.3,-3 -0.3,-2.3 1.3,-2.4 -0.2,-1 -0.8,-0.9 -0.3,-1.6 0.7,-1.1 0.8,-0.5 0,0 2.4,-1.6 0.4,-0.8 1.6,-7.9 0.3,-0.3 1.1,-0.3 1.7,-1 0.7,-0.7 1.4,-3.6 -0,-1.1 0.9,-2.3 1.1,-0.8 5.4,-2.3 0,0 3.3,-2.3 3.8,0.7 4,-0.1 3.3,0.3 1.2,-0.6 0.3,-0.6 0.7,-0.4 1.2,0.3 1.5,0.8 2.5,0.5 2.6,1.1 1.3,0.1 1.1,-0.5 2.6,-0 0.8,1 1.8,0.8 3.5,0.8 0.6,0.5 0.7,1.3 1.7,0.1 0.4,-0.3 1.6,0.1 0.7,0.5 5.3,0.1 3,-0.8 1.1,1.6 3.6,2.8 0.9,1.8 0,2.7 -0.4,0.6 -0.2,0.8 0.4,1.8 1.3,1.5 -0.1,1.8 -0.4,0.6 1.5,3 1.2,1.1 0.7,0.3 0.5,0.7 -0.1,0.9 0.9,2 0.6,0.3 0.3,0.4 -0.3,1.1 -1.3,2.1 0.3,2 0.6,0.4 1,0.2 2.4,-0.1 3.4,-0.5 0.5,0.4 1.6,-0.2 1.6,0.1 1.6,1.3 -0.1,0.4 -0.9,0.7 -0.7,3.3 0.3,0.8 1.1,0.5 0.7,-0.8 1.1,-2.8 0.8,-0.2 2.1,0.6 -0.4,1.9 0.7,3.3 1.4,0.6 0.2,1.3 0,0 -1.4,1 -0.6,1.5 -0.6,-0.1 0.3,-1.9 1.4,-0.9 -1.4,0.3 -0.9,0.5 -0.9,-0 -0.3,-0.4 -0.6,-0.2 -0.5,0.4 -0.3,0.9 0.5,0.8 -0.7,1 -0.3,0.1 -2.5,-0.5 -0.8,-0.5 -0.5,0.1 -0.2,0.9 0.3,0.4 1.6,0.6 1.4,-0.3 2.1,0.6 0.3,0.5 -1,0.7 -1.5,2.8 -1.2,0.8 -2.4,0.6 -0.2,0.5 3,-0.2 0.1,1.2 z"/><path d="m 558.5,227.5 -1.2,-3 -0,-0.9 -2.1,-0.9 -0.5,-0.4 -0.5,-0.8 0.6,-0.9 -0,-0.6 -0.5,-0.3 -1,0 -0.4,0.4 -0.3,1.7 -0.4,0.1 -0.4,-0.3 -0.5,-1.6 -1.6,-1.1 -3,-0.4 -2.4,-0.8 -1.4,-0.8 -0.8,-1.4 -1.5,-0.6 -0.6,0.1 -2.5,1.5 -1.6,0.4 -0.8,2 -2.2,0.5 -0.3,0.3 0.3,1.4 -0.2,0.6 -1.1,1.2 -2.4,1 -0.6,-0.1 -0.8,-0.5 -0.8,0.2 -0.5,0.9 -0.8,3.6 -2.9,0.9 -0.8,0.9 -1,0.2 -1.8,-0.6 0.9,-1.7 -0.3,-2 -2.2,-0.9 -0.7,-1.9 0.1,-2.7 -0.4,-0.5 -2.8,-1.4 -2.2,-0.3 -1.2,0.3 -0.9,-0.4 0,0 2.6,-1.3 2,-1.7 0.5,-0.9 2.3,-1.3 1,-0.3 3.9,-3.9 0.7,-1.8 0.1,-2.3 -0.3,-0.5 -1.6,-1.6 0.1,-2.2 -0.6,-1.1 -0.1,-0.9 0.1,-0.5 0.5,-0.3 1.8,-0.2 0,0 4.9,0.2 0.9,0.2 1.6,-0.2 2.1,-0.8 1.3,-0.1 3.1,0.4 2.9,1.9 1.8,0.8 0.5,1 1,1.1 1.4,0.5 0.8,0.6 0.6,1.6 1.6,-0.1 1.5,-2.3 1.1,-0.8 1.6,-0.5 0,0 0.4,0.1 1.4,1.9 1,0.3 1.5,-0.3 0.9,-0.7 0.4,0.1 0.6,1.2 -0.1,0.7 0.8,0.3 2.6,-1 1.6,-0.2 1.5,-1.6 2.7,-1.9 1.1,-0.3 1.5,-0.9 0.9,-1.5 2.2,-1.3 1.5,-0.4 3.5,1.9 0.5,1.4 -0.1,0.3 -3,1.1 -0.4,0.8 0,0.5 0.7,1.9 -0.2,0.4 -2.5,2.6 -0,0.5 1.5,-0.3 0.4,-0.3 1.1,0.3 0.2,0.3 -0.2,0.5 0.3,2.2 0.9,0.9 1.6,0.8 1.6,-0.8 1.3,-0.2 1.8,-1.5 0.4,-0.5 -0,-0.5 -0.4,-0.7 0.5,-0.8 0.9,-0.7 1.8,-0.1 0.6,-0.6 1.6,-0.9 3.9,0.3 2.2,-0.3 0.8,-0.5 0,-0.6 1.1,0 2,-0.5 1.9,-1 0.5,-1.8 1.5,-1.3 2.3,-1.1 2.6,0.2 0.8,0.3 2.5,2.1 0,0 0.9,0.2 0.6,1.2 -1.3,1.7 -0.1,0.6 0,0.5 0.7,0.4 0.3,0.5 0.2,1.1 -2,6.4 -3.3,8.9 0,0 -0.3,-0.2 -2.9,-0.3 -1.9,-0.8 -1.5,0.2 -2.6,1.3 -2.2,-0.8 -2,0.2 -1.6,1.2 -0.1,0.5 -2.2,2.3 -1.8,1.1 -1.2,-0.1 -1.9,1.1 -1.2,0.1 -3.1,-0.3 -2.5,0.7 -1.9,-0.5 -1.8,-1.1 -1.9,-2.1 -2.5,-2 -1.1,0.1 -1.7,-0.3 -1,-1.2 -0.8,0.6 -0.1,0.7 -2.4,3.3 -2.2,0.8 -0.6,1.1 z"/><path d="m 506,127.2 1.3,0.1 0.7,-0.2 2.2,0.5 1,0.8 0.3,0.6 0,0 -0.1,0.8 -1.1,1.9 -1.6,2 -0.2,1.5 0.3,1.3 1.8,4.7 3.1,6.4 0.4,1.7 1.4,1.6 -0,0.8 -0.7,1.4 0.8,3.9 -0.5,1.6 1,2 0.6,3 -0.6,1.6 -0.8,0.6 0.9,0.7 0.1,0.4 0.9,8.2 -0.2,0.5 0.8,2.6 1.1,5.2 1,2.7 1.3,0.7 2.6,0.5 0.8,1.2 -0,0.7 -1.5,2.3 -1.1,3.1 0.1,1 0.7,0.7 -0.1,1.3 0,0 -1.8,0.2 -0.5,0.3 -0.1,0.5 0.1,0.9 0.6,1.1 -0.1,2.2 1.6,1.6 0.3,0.5 -0.1,2.3 -0.7,1.8 -3.9,3.9 -1,0.3 -2.3,1.3 -0.5,0.9 -2,1.7 -2.6,1.3 0,0 -0.5,1.2 -1.5,2.3 -1.1,0.7 -0.8,-0.2 -2,0.4 0.1,2.4 -1.9,1.8 -0.3,-0.1 -0.6,-0.6 -2.2,-0 -0.8,1 -0.8,0.4 -2.7,0.3 -1.5,1.3 -0.8,1.2 -1.7,0.1 -1.5,0.6 -3,0.1 -0.8,-0.3 -0.2,-0.3 0.1,-0.7 -1.7,-1 -1.3,-0.4 -1.4,0.6 -2.1,0.4 -0.3,-0.2 -0.4,-0.9 -1.5,-0.5 -1.9,0 -3.2,1.6 -0.1,0.9 2.2,4.4 0.1,1.1 -0.3,2.6 -0.3,0.9 -0.7,0.9 -3,5 -3,2.4 -1.4,0.4 -1.5,-0.5 -1.3,-0.2 -2.2,0.8 -1.2,0.9 -0.7,0.9 -1.1,0.4 -0.8,1.4 -0.3,0.2 -2.1,-0.2 -1.8,0.5 -4.2,-1.9 -1.8,-2.5 -0.5,-2.2 -0.7,-1 -1.4,-1.3 -2.3,0 0,0 -2.9,-0.2 0,0 0.1,-1.9 0.3,-1.1 1.1,-2.5 0.1,-6.4 0.8,-1.4 0,-0.5 -1.7,-3.1 -0.5,-3.2 -0.7,-1.9 0.7,-2 1.7,-1.4 1.2,-2.5 0.1,-1.5 0.3,-0.8 0.3,-0.2 1.4,-2.7 0.6,-2.3 0.4,-3 1,-3 2.1,-1.9 2.7,-0.8 2.6,-0.3 1.1,-0.4 1.7,-1.5 1.1,-0 1.3,-0.5 2.9,-2.6 2.3,-0.9 2,-2 0.6,-0.9 0,-0.5 1.9,-1.9 0.5,-0.2 0.8,-0.2 0.2,0.3 1.1,-0.3 1,-0.6 1.5,-0.2 1,0.2 2.5,1.8 1.5,-0.1 2.4,-0.9 0.8,-0 0.7,0.3 2.3,-0.3 1.2,-1.3 0.5,-1.5 0.1,-1.2 0.3,-0.4 0.4,-2.2 -0.1,-0.8 -0.2,-0.5 -1.6,-0.9 -1.8,-2 -0.5,-2.3 -0.1,-2.1 0.2,-2.5 4.1,-4.4 0.2,-0.6 0.1,-2.4 -0.6,-3 -1.6,-2.8 1.1,-2.9 0.3,-1.5 -0.4,-1.3 -1.2,-0.8 -0.3,-1.9 0.8,-1.1 0.6,-0.2 0.8,-2 1.9,-1.9 0.9,-1.8 -0,-1.8 2.9,-3.4 0.8,0.2 3.3,-0.5 4.1,-4 1.8,-2.3 0.4,-1.5 -0.6,-0.5 -0.2,-0.7 0.5,-1.4 0,0 0.7,0.1 1.5,0.9 0.5,0.5 -0.1,0.3 z"/><path d="m 468.6,450.5 -0.1,-0.8 0.4,-0.3 3.2,0.2 2.6,-0.6 -2.5,-1.6 -1.4,-0.5 -2.8,0.7 -1.4,1.6 -1,0.3 -0.7,-0.1 -1.4,-2.1 -0.5,0 -0.9,0.4 -1,1.1 -3.1,0.8 -0.3,0.9 -0.2,1.9 2.2,0.1 1.1,1 -1.1,1.1 -0.9,-0.2 -1.4,0.2 0,0 -0.5,-0.3 -1.6,-1.7 -0.1,-0.4 1.1,-3.5 1.1,-1.1 2.4,-1 0.5,0.1 2.8,-0.4 1.5,-0.7 1.6,-2.1 -0.8,-1.6 -1.7,-0 -3.1,0.5 -1.8,-0.4 -1.2,-1.6 -0.6,-1.2 -1.3,-0.5 0,0 0.7,-0.5 2.4,-0.7 2.9,-1.3 2.6,-0.2 0.5,0.3 1.7,-0.8 1.1,-0.8 4.1,-1.8 0.5,-0.1 0.4,0.3 3.2,-0.1 1.3,-0.2 1.6,-0.9 0.6,-0.1 2.5,0.3 0.5,0.2 -0,0.5 1.4,-0.2 9.5,-4.5 2.5,-1 0.2,-0.5 -0.3,-0.6 -1.4,-0.1 0.1,-0.8 1.9,-3.7 2.4,-6 -0.7,-0.7 0.6,-0.5 1.2,-0.3 2.5,-2.4 0,0 1.9,0.8 0.7,4.7 2.5,1.1 4.3,1 3,-0.4 1.6,1.1 0,0 -0.1,1.3 -0.9,1.6 -0.2,2.1 1.1,6.8 -0.5,0.7 -3.1,1.8 -6,1.9 -2.8,1.7 -3.5,3.7 -0.1,1.7 0.3,1.2 -0.2,1.6 -0.7,1.5 -1.8,0.5 -6.5,-0.2 -5.8,0.7 -2.4,-0.5 -0.5,-0.4 -0.1,-0.7 1,-1.5 0.7,-1.4 -0.1,-0.6 -0.8,-0.2 -2.8,1.1 -0.3,0.7 0.3,0.8 1.4,1.2 0.3,1 -0.6,0.5 -1.6,0.5 -1.6,-0 -8,1.1 -1.5,0.5 z m -5.1,2 -0.7,-1 2.1,-1.6 1.9,0.9 0.4,0.7 -2.5,0.5 -0.4,-0.3 -0.5,0 -0.4,0.7 z"/><path d="m 609.6,183.2 -0.9,0.2 -3.5,-0.2 -1,0.4 -2.5,-1.1 -2.2,-0.3 -5.8,0.4 -0.5,-0.3 -3.4,-0.4 -0.6,-0.5 0.1,-1 -0.4,-0.4 -1.4,0.1 -1.8,1.4 -0.3,1.5 0.7,0.8 0.5,1.5 -1,-0.3 -0.5,0.6 0.2,1.4 0.5,0.9 -0.6,1.2 -0.5,0.7 -2.4,0.9 -0.8,-0.7 0.5,-1.5 -0.9,-1.2 -1.9,-0.3 -1.8,0.1 -3.1,1.3 -0.3,-0.2 -0.3,-1.4 -0.3,-0.2 -3.5,-0.5 0.1,-1.7 0.2,-0.3 0.8,-0.3 0.4,-0.4 0.4,-1.7 0.4,-1 3,-3.2 -0,-1.2 -0.5,-0.4 -0.6,-0.1 -3.3,1 -1.4,0.1 -3.2,1.2 -0.4,0.9 -0.1,1 -0.8,0.7 -3.2,1.7 -1.2,1.1 -2.9,-0.6 -0.9,-0.4 -1.9,-1.6 -0.6,0.5 0,0 -0.7,0.4 -0.6,-0.2 0.3,-2 1.4,-2.3 0.8,-0.9 0.5,-0.1 0.8,0.5 1,-0.3 0.6,-1.1 1.5,-1.5 1.4,-2.4 -0.1,-0.7 0.7,-1.7 0.9,-0.6 0.8,-1.1 3.3,-6.7 2.6,-2 4.9,-1.6 0,0 0.5,0.8 0.9,0.8 3.1,-0 1.2,0.4 1.7,1.8 1.3,0.5 3.3,-0.3 2.9,0.5 2.5,-0.2 2.3,-0.7 4.5,0.9 1.3,0 1.9,0.9 1,0.8 0.6,0.9 2.3,4.7 0.5,1.8 -0,0.8 1.5,5.4 0.2,1.7 0.7,0.5 1,2.7 z"/><path d="m 322.3,638.8 -0.4,0 -1.9,-1.1 -0.2,-0.5 0.5,-4.3 -0.5,-4.3 0.1,-1.1 0.6,-1.2 2.8,-2.4 0.8,-1.6 2.3,-2.6 -1.5,-1.6 -1.1,-0.6 -2.3,-0.6 -2.3,-2.3 -1.2,-1.6 -0.1,-1.6 -0.4,-1.2 -1.2,-2 -2.1,-2.2 -0.7,-0.6 -2.4,-1.2 -1.4,0.2 -1.9,-1.5 -1.5,-1.6 -1.3,-0.8 -0.1,-1.7 -1.9,-2.2 -3.3,-0.5 -0.9,-0.5 -1.7,-1.7 -1.8,0.1 -2.2,-1.4 -1.9,-3.7 -1.1,-1.5 -2.5,-2.1 -0.7,0.1 -0.7,1.8 -2.6,2.2 -2.7,0.1 0.1,-2.9 0.4,-1.3 -0.4,-1 -3.6,-4.3 -2.4,-1.8 -2.2,-2.1 -1.8,-2.1 -2.7,-2.2 -1.9,-0.1 -2.1,0.2 -1.1,1.4 -0.1,1 -1,1 -1.1,0 -0.6,-0.5 -3.2,0.1 -0.7,-0.5 -0.2,-0.9 -0.5,-0.2 0.8,-0.2 1,-0.7 2.5,-2.8 0.1,-1.8 0.6,-1.3 0.8,-0.5 1.3,-0.1 0.6,-0.3 0.9,-1 5.5,-6.5 0.6,-1.4 0.2,-1.1 0.8,-1.1 1.2,-0.8 1.4,-0.4 2,-4.2 0.1,-0.6 0.3,-0.4 1.6,-0.9 1.6,-1.8 0.8,-1.1 0.5,-1.3 1.3,-2.1 0.9,-0.3 1.6,0.2 0.6,0.8 0.5,-1.3 -0.2,-0.6 -1.4,-0.8 -0.1,-0.4 0.3,-0.3 1.1,-0.4 0.8,-1 2.8,-0.9 1.1,-1.1 0.1,-0.9 0.8,-0.9 2.2,-1.1 2.5,-0.4 1.8,-1.8 0.1,-1.1 1.3,-2.4 0.3,-0 0.1,0.4 0.3,0.2 1.3,-0.2 2.4,-1.1 2.7,-0.6 1.2,-0.6 2.1,-2.4 0.5,0 0.7,-0.4 1,-1.4 2.3,-0.7 0.3,0.4 0,0 3.5,0.4 3.3,-1.1 0.6,-0.8 1.4,0.6 -0.1,0.9 3.1,-0 1.6,1 2.6,-0.4 1.9,1.1 2.6,-0.4 1.5,0.2 2.8,-0.2 2.3,0.9 2.5,1.4 1,2.4 1.6,0.2 0.1,-0.5 1.8,-0.3 5.6,3.5 1.4,1.6 0.7,-0 1.6,1 3,3.5 1.6,2.2 0.5,1.5 2.2,2.7 1.2,0.6 6.7,1.1 2.1,-0.4 3.4,0.3 0.9,2.3 -2.1,1.6 -1.3,0.4 -0.7,1.9 0.2,2.2 -0.4,1.6 -0.5,1.3 -1.2,0.2 -1.3,1.7 -0,1.4 1.8,1.2 0.3,-0.2 -0.3,-1 0,-1 1.5,-0.8 1.6,0.6 0.7,0.9 1.2,0.8 0.5,-0 0,0 -1.4,1.7 -3.9,7 -4.2,11.6 -6.3,10.5 -5.4,6.7 -6.5,6 -6.1,3.7 -3.1,4.3 -0.2,-0.4 0.7,-1.6 0.3,-2.2 -1.2,-1.7 0.1,-0.4 0.9,-0.2 1,0.4 0.6,0.6 1,0 2.6,-1.4 0.8,-0.7 2.9,-3.7 0.8,-0.7 0.5,0.2 1,-0.2 1.1,-0.8 0.9,-1.3 0.4,-1.5 0.2,-0.9 -0.2,-2.1 0.2,-1.4 1.6,-0.1 0.7,0.3 0.3,0.8 0.3,-0.3 -0.3,-1.4 0.5,-2.1 0.5,-0.6 2.7,-1.6 0.7,-1.1 0.5,-2.8 -0.2,-2.3 0.6,-0.7 0.5,0.8 0.4,0 0.4,-0.4 0.5,-3.1 -0.1,-0.4 -0.9,-1.2 -0.7,-0 -0.3,0.7 0.2,0.4 -0.1,0.6 -0.3,0.2 -1.5,-0 -2,0.4 -0.3,1.6 -0.5,0.1 -0.8,-0.4 0.1,-1.7 -0.8,-0.9 -1,0.3 -0.6,-0.5 -0.7,-1.3 -0.4,-1.4 0.1,-0.6 -0.6,-0.7 -0.6,2.7 0.4,2.3 1.3,2.1 -0.6,0.8 -0.7,2.5 0.4,3 -0.2,0.8 -0.5,-0.4 0.3,-0.2 -0,-0.7 -0.5,-1.3 -0.5,-0.4 -0.5,0.7 -0,1.4 -1.4,3.3 -0.1,1.9 0.2,0.5 -0.7,0.7 -1.6,0.6 -0.6,1.6 -4.1,1.6 -0.7,0.5 -0.5,1.6 -0.1,2.3 -1,2.3 -2.4,1.3 -0.1,1.8 0.5,0.8 0.3,1 -0.9,0.6 -0.3,1.5 0.4,0.6 0.7,-0.1 1.3,0.6 0.1,0.9 -2.1,1.6 -2.3,4.5 -1.9,6.9 -2,4.5 -1.7,2.5 -7.8,7.5 z"/><path d="m 187.6,291.2 -1.3,-1.4 -0.4,-1.9 -1.6,-0.5 -0.9,0.3 -1.8,0.1 -4.1,-1.8 -0,-0.4 -0.7,-0.6 -1.3,0.6 -2,-1.7 -1.5,-1 -0.9,-1.5 -0.3,-1.4 -1,-0.4 -1.8,1.1 -1.2,-0 -1.4,-0.8 -0.9,-1.3 -3.1,-1.6 -2,-0.2 -1.1,0.5 -0.9,0.8 -1.4,-0.2 -0.3,-0.3 -2.1,-0.5 -3.1,-0.3 -0.8,-0.4 -1.2,-1.2 -0.3,-2 -1.6,-0.5 -1.9,-1 -0.8,-1.7 -0.3,-0.2 -2.7,-0.3 -0.4,-0.3 -0.8,-3.7 -0.9,-0.9 -0.5,1.2 -0.7,-0.3 -0.3,-0.6 0.6,-1.5 -0.8,-1.5 -1.4,-0.4 -1.3,-3.5 -0.2,-1.7 1.6,-2.9 -0.2,-1.7 -1.2,-2 -0.8,-2.2 -0.1,-2.3 0.6,-0.5 0.4,-1.4 1,-1.1 0.4,-1.5 -0.2,-1.5 -0.4,-0.9 -0.1,-1.5 0.5,-1.6 -1.2,-2.2 -1,-0.4 -1.1,1 -0.1,0.5 -0.8,1 -0.6,0 -2.2,-1 -5.2,0.1 -5.6,1.8 -1.7,-0 -1.5,0.5 0,0 -3,-1.3 0,0 3.3,-2.6 1.9,-0.6 1.6,-1.8 0.1,-0.6 -0.2,-1.3 4,0.3 2.9,-0.3 0.7,0.4 2.3,2.3 0.4,-0 1.2,-0.8 0.1,-0.7 0.4,-0.5 1.1,-0.5 0.8,0.1 1.4,-0.4 1.3,-1.2 1.8,-1 0.4,0.1 0.6,2.3 0.7,0.5 0.7,-0.1 2.5,-3.2 -0.3,-1.8 0.5,-0.8 1.8,-1.3 0.5,0 0.8,0.6 1.8,0.1 1.2,-1.1 2.1,-0.4 3.9,0.5 -0.2,-1.5 0.1,-1.8 2.1,-1.2 0.8,-1.1 0.4,-1 -0.2,-0.5 -0.9,-0.7 0.1,-0.7 1.2,-1.6 2.5,-0.5 0.3,-0.2 -0.1,-1.2 1.7,-0.5 1.4,-2.6 10.8,-0.1 2.1,1.1 0.5,0.5 0.8,1.9 1.3,1.3 2.5,1 1.3,3.3 0.5,0.2 1,-0.1 0.6,0.2 0.7,2.9 3.2,1.5 0.7,-0.2 0.5,-1.7 1.9,-1.1 1.4,0.3 0.4,0.4 -0,0.7 0,0 1.4,1 0.6,1.2 -0.8,1.4 -1.3,5 0.1,0.3 0.8,0.5 0.3,0.6 0.1,1.4 0.8,2.3 -0.9,1.7 0.4,1.9 -1,3.5 -0,0.8 0.3,1.8 1.5,2.8 -0.9,9 17.2,0.1 -0.2,0.6 1.2,1.1 3.5,-0.1 1.1,0.1 1.1,0.4 1.4,3.6 -0.2,0.8 -1.4,1.8 -1.4,1.1 -0.1,1.3 0.4,3.3 0.6,0.5 0.9,-0 1.5,3.3 -0,2 0.6,1.5 -0.1,1.7 -0.6,2.2 -1.7,2 -0.5,2.3 -0.6,0.8 -0.4,0.4 -1.6,0.5 -0.9,1.1 -1.4,3.8 -0.5,2.5 -4.1,2.6 -1.5,1.4 0,0 -0.7,-0 -2.6,-1.6 -1.3,-1.4 -7.1,1 -1.3,-0.4 -0.3,-0.3 -3.4,0.7 -0.5,-0.2 -0.5,-1.4 z"/><path d="m 234.9,61.7 1.6,17 0,0 -18.5,-0.1 0,0.7 -2.3,3.3 -1.7,3 -0.1,1.1 -1.1,2.6 -0.1,0.7 0.2,0.7 1.1,1.4 -0,0.5 -0.4,0.4 -2,0.6 -1.4,1.4 -1.3,0.5 -1.8,-0.2 -0.9,-2.5 -1.9,-2 -2.8,-0.9 -1.6,0.1 -0.6,0.9 -2.1,0.7 -1.3,0.7 -1,1.3 -0.8,3 0.4,1.8 -0.3,1.7 -0.8,2.3 0.4,2.1 -2.4,-1 -1.3,0.4 -0.5,-0.1 -1,-2 -1.5,-1.6 -2,-1.3 -0.5,-0 -5,-4.4 0.1,-1.1 1.8,0.3 1.1,-1.3 0.1,-0.6 -1.1,-4.3 -0.6,-0.9 -1.2,-0.8 -0.9,-2.2 -0.3,-5 0.6,-1 0.8,-3 -0.7,-1.6 -0.4,-1.6 1.6,-1.5 -0.1,-0.5 -0.9,-1.1 -0.2,-2.3 -1.7,-4.8 -2.7,-3.7 0.7,-1.5 0.9,-3.3 -0.5,-0.7 -1.9,-0.9 -1.4,-0.1 -0.9,0.2 -1,-0.4 -1.2,-1.2 -0.1,-1 -0.6,-0.1 -1.1,0.4 -0.6,-0 -0.8,-0.3 -0.7,-0.8 0,0 0.3,-0.5 0.2,-2.3 -0.3,-0.2 -3.4,-0.2 -3.8,0.1 -3.3,-0.7 -0.2,-0.6 0.8,-1.8 0.1,-1.5 -0.7,-1.8 -1.9,-3.5 -0.7,-2.1 -0.5,-3.7 0.8,-1.5 -0.1,-1 -1.8,-2 -2.2,-1.1 -2.8,-2.8 -1.1,-1.8 -0.3,-1 -1.1,-0.7 -0.3,-0.4 0,-0.8 0.3,-0.3 0.9,0.1 1.1,0.7 0.9,1.7 0.6,0.1 3.4,-0.5 1.4,0.1 1.9,0.6 0.6,1.2 0.6,1.9 0.5,0.3 1,-0.1 0.7,-0.7 0.9,-0.4 3.2,0.2 0.5,0.1 1.3,1.2 0.6,0.1 0.5,-0.1 0.6,-1.6 1.3,0.1 1.4,0.9 3.9,4.6 1.1,0.6 0.7,0.1 1.5,-0.7 0.7,-1.1 0.1,-0.8 -0.8,-2.8 0.4,-1.7 0.5,-0.3 1.9,-0.1 1,-1.1 1.6,-1.1 0.8,0.1 3.9,1.3 0.6,-0.2 0.8,-0.7 1,-0.3 1.1,0.3 1,-0.2 1.3,-1.3 1,-0.3 1.1,0.2 1.1,-0.1 0.7,-0.8 0.1,-1.4 3,-1.8 2.3,0.2 2.8,-0.4 0.9,-1.1 0.1,-0.7 0.6,-1.1 0.8,-0.1 1.9,-0.9 1.1,-1 1.1,-1.7 -1.2,-3.6 -1.2,-0.4 0.6,-0.2 1.4,0.1 0.8,0.3 3.6,-0.1 1.1,-0.9 0.7,-0.2 1.4,0.4 0.5,1.3 1,0.8 0.5,1.4 -0.7,4.9 -0.7,1.4 -1.3,0.7 0.1,0.8 1.6,0.4 1.6,-0.2 2.4,0.8 1.8,1.1 -0.9,1.4 -0,1.1 2.3,3.4 0.2,1.6 -1.5,2.9 -1.9,1.4 -0.7,1.5 0.3,0.4 0.1,2.2 -1.5,2.4 -0.9,2.8 -0.3,2.6 -0.1,2.7 1,1.9 0.5,1.8 -0,1.4 1.6,1 0.9,0.2 0.1,0.7 -0.5,5.2 0.1,0.7 1.8,0.3 -0.7,1.2 0.5,0.5 2.1,0.7 1.5,1.9 2.7,2.7 z"/><path d="m 379.6,558.3 -0.5,0 -1.2,-0.8 -0.7,-0.9 -1.6,-0.6 -1.5,0.8 -0,1 0.3,1 -0.3,0.2 -1.8,-1.2 0,-1.4 1.3,-1.7 1.2,-0.2 0.5,-1.3 0.4,-1.6 -0.2,-2.2 0.7,-1.9 1.3,-0.4 2.1,-1.6 -0.9,-2.3 -3.4,-0.3 -2.1,0.4 -6.7,-1.1 -1.2,-0.5 -2.2,-2.7 -0.5,-1.5 -1.6,-2.2 -3,-3.5 -1.6,-1 -0.7,0 -1.4,-1.6 -5.6,-3.5 -1.8,0.3 -0.1,0.5 -1.6,-0.2 -1,-2.4 -2.5,-1.4 -2.3,-0.9 -2.8,0.2 -1.5,-0.2 -2.6,0.4 -1.9,-1.1 -2.6,0.4 -1.6,-1 -3.1,0 0.1,-0.9 -1.4,-0.6 -0.6,0.8 -3.3,1.2 -3.5,-0.4 0,0 1.4,-2.9 0.7,-2.1 -0.6,-3.3 0.4,-3.2 -0,-2.5 1,-1.8 0,0 3.6,0 0.7,-0.4 0.5,0 1.1,0.2 0.3,0.5 2,1.4 2.7,0 2.3,-0.6 5.3,1.7 4.3,0.4 1,0.6 0.2,0.4 1.6,1.2 3.8,0.4 4.3,-0.1 1.3,1.9 0.2,-0.5 0.7,-0.4 0.9,-0 0.9,-0.9 -0.8,-3 0.7,-1.6 0.7,-0.8 2,-1.1 3.6,0.4 1.9,-1 0.7,-0.9 0.6,-1.5 1.5,-0.7 1.1,-0.1 1.4,0.8 0.8,0 2.3,-0.2 2.8,-0.7 0.8,0 1,0.4 3.1,2.6 1.2,0.6 1.4,0.2 3.4,-2.1 1.4,-1.4 1.6,-0.6 0.1,0.4 0.8,0.1 1.7,-0.2 0.3,-0.4 5.2,0 0,0 -0.4,1.3 0.5,1.6 -0.1,0.4 -1.5,1.1 -1,-0.5 -0.8,-2.5 -0,1.1 0.6,2.7 1.7,1.7 0.6,0.9 -1,2.3 -0.2,2.3 0.1,0.4 0.8,0.7 0.3,5.9 0.3,0.6 0.4,0.2 0.8,-0.5 0.3,0.7 0.1,0.9 -0.5,0.1 -0.4,-0.3 -1.2,0.6 -0.3,3.8 0.6,2.6 -0.6,0.8 0.3,1.9 0.9,1.9 -0.9,2.3 -0.5,4 -1.7,4.7 -0.3,-0.1 -0.4,-0.8 0.2,-1 -0.9,-1.2 -0.3,0.3 0.2,2.4 1.2,0.8 -0.9,1.7 -1.6,0.7 -4.1,3 -2.8,2.6 -3.8,4.4 -1,1.9 z m 17.9,-26.6 -0.1,-0.5 0.3,-1.8 0.8,-2.4 -0.4,-1.2 0.2,-1 1.4,-0.8 0.2,0.1 0.7,0.9 -0.5,2.6 -0.8,0.9 -0.6,1.2 0.2,1.2 -1.1,0.8 z m -0.5,-24.4 -1.9,-2 2.5,-2.4 0.3,0 0.7,1.1 -0.9,1.3 -0.7,2 z"/><path d="m 404.8,488.2 -0.2,-1.3 -1.4,-0.6 -0.7,-3.3 0.4,-1.9 -2.1,-0.6 -0.8,0.2 -1.1,2.8 -0.7,0.8 -1.1,-0.5 -0.3,-0.8 0.7,-3.3 0.9,-0.7 0.1,-0.4 -1.6,-1.3 -1.6,-0.1 -1.6,0.2 -0.5,-0.4 -3.4,0.5 -2.4,0.1 -1,-0.2 -0.6,-0.4 -0.3,-2 1.3,-2.1 0.3,-1.1 -0.3,-0.4 -0.6,-0.3 -0.9,-2 0.1,-0.9 -0.5,-0.7 -0.7,-0.3 -1.2,-1.1 -1.5,-3 0.4,-0.6 0.1,-1.8 -1.3,-1.5 -0.4,-1.8 0.2,-0.8 0.4,-0.6 -0,-2.7 -0.9,-1.8 -3.6,-2.8 -1.1,-1.6 -3,0.9 -5.3,-0.1 -0.7,-0.5 -1.6,-0.1 -0.4,0.3 -1.7,-0.1 -0.7,-1.3 -0.6,-0.5 -3.5,-0.8 -1.8,-0.8 -0.8,-1 -2.6,0 -1.1,0.5 -1.3,-0.1 -2.6,-1.1 -2.5,-0.5 -1.5,-0.8 -1.2,-0.3 -0.7,0.4 -0.3,0.6 -1.2,0.6 -3.3,-0.3 -4,0.1 -3.8,-0.7 -3.3,2.3 0,0 0.8,-1.1 0.7,-1.5 1.3,-1.1 7.6,-4.5 1.9,-1.9 1.3,-2.4 1.7,-1.7 0.4,-1.2 1.4,-1 0.3,-1.2 -0.3,-0.8 2,-2.3 1.2,-2.3 0.1,-0.9 -0.3,-1.9 0.2,-0.4 1,-0.5 2.6,-3.6 0.2,-2.9 0.6,-1.7 1,-0.3 0.7,-0.6 2,-2.7 1.2,-1 0.5,-0.2 1.3,-0 1.5,-0.8 0.3,-0.4 0.4,-2.5 0,0 1.2,-1.1 2.1,-1.1 1.9,-0.4 1.4,-1.7 1.5,-0.6 0.8,0.1 1.7,1.6 2.5,0.1 4.3,1 1.7,-0.4 1.6,0.2 2,-0.6 2.2,1.4 1.7,0.8 -0.1,0.9 0.3,1.4 1.2,2.1 0.6,0 0.5,-0.3 0.7,-0.9 0.4,-1.1 0.3,-0.2 0.6,0.1 0.4,0.4 0.3,1 0,2.8 1.2,0.5 0.4,-0.5 -0.3,-2.5 0.5,-1.2 0.5,-0.5 8.2,-0.7 1,-1.3 1.5,1.5 1.1,0.4 2.8,-0.7 0.4,-1 -0.2,-0.5 0.3,-0.6 2.4,-0.1 1.7,0.8 0.8,-0.6 1.3,-0.3 3.3,3.4 0.2,1 -0.6,1 -0.3,2.4 0.6,0.6 1.9,1.2 0.4,1.6 -0.1,0.6 -1.5,2 -0.2,1.9 0.8,0.7 0.3,0.6 0.4,2.2 1.3,1.8 0.8,2 -0,0.8 1.6,-0.1 0.8,-0.3 0.3,-0.4 1,-0.1 3.7,1.3 0.2,0.4 -0.1,1.3 -0.7,2.2 -1.9,2.7 0.3,2.9 -0.2,3.5 -0.5,1.6 0.7,1.6 1.8,1.2 1.8,0.8 0.5,1.7 -1.2,0.7 2,3.3 1.1,0.3 2,-0.2 0.2,0.5 3.6,-1 0.6,0.4 1.3,-0.3 0.8,-1 0.1,-0.8 -0.2,-0.2 0.2,-2.3 1.2,-0.3 0.1,0.3 -0.3,0.5 0,0.5 2.3,0.1 2.4,-0.3 1.8,-0.7 1.2,-1.2 1.9,-1 2.2,-0.2 1.2,-0.7 0,0 1.3,0.5 0.6,1.2 1.2,1.6 1.8,0.4 3.1,-0.5 1.7,0 0.8,1.6 -1.6,2.1 -1.5,0.7 -2.8,0.4 -0.5,-0.1 -2.4,1 -1.1,1.1 -1.1,3.5 0.1,0.4 1.6,1.7 0.5,0.3 0,0 -0.1,0.2 -1.7,0.4 -1.1,-0.8 -1.5,1.1 -0.4,0.7 0.3,0.2 -0.8,0.6 -3.2,1.6 -2.3,0.7 -0.3,0.4 0,1 0.5,1.6 -0.3,0.4 -1.4,0.3 -0.7,-0.6 -1.3,-0.3 -3.1,-0.5 -0.9,0.1 -1.3,0.3 -1.7,0.8 -0.5,0.5 -1.2,2.1 -1.3,0.6 -0.5,-0.1 0.6,-0.5 -0.5,-1.2 -1.2,-0.8 -0.8,1.2 0.3,0.8 -0.3,0.6 -7.6,4.2 -0.9,0.8 -0.3,1.2 -3.3,3 -3.3,1.9 -1.9,0.5 -4.5,3.2 -2.3,2 -0.7,0.1 -0.4,0.6 0.9,0.4 0.7,0.1 0.9,-0.4 0,0.8 -0.6,1.3 -1.3,0.8 -1.1,1.5 z m 44.3,-23 -1.5,-0.7 -1.2,0.2 -0.5,-0.4 0.1,-0.8 0.9,-0.7 1.1,-1.9 0.7,0.3 0.7,0.7 0.1,2.9 -0.5,0.3 z"/><path d="m 570.2,262 -2.9,0.9 -1.6,-0.6 -0.5,-0.3 -0.5,-0.7 -1.9,-0.9 -0.6,-0.5 -0.1,-0.4 0.3,-0.4 0.1,-1.4 -0.1,-0.4 -1.4,-1.5 -0.5,-1.5 -1.1,-0.7 -1,-1.6 -0,-0.8 0.6,-1.6 0.3,-0.3 1.7,0 1.1,0.8 2.5,-1 0.7,-0.6 0.3,-0.6 -0.8,-2.8 0.1,-0.9 0.7,-1.6 0.1,-3.1 -0.8,-1.1 -2,-1.9 -1.3,-2.5 -0.2,-2.1 0.7,-1.1 0,0 6.5,3 3.7,0.9 5.4,3.1 1.3,2.5 1.8,1.4 1.7,0.8 0.5,0 3.6,2.2 0.6,1.3 0,0 -2.4,0.8 -4.6,2.9 -1,0.9 -1.6,2.2 -0.3,-0 0.1,-1.1 -1.1,-1.8 -1,0.2 0.3,1.2 1.2,0 0.2,0.2 -0.5,2 -1.3,2.1 -0.5,-0.3 -0.4,-0.7 -1,-0.2 0.2,0.7 1.1,0.6 -0.3,1.8 -0.9,1.1 -0.9,2 -0.8,0.1 -0.3,-0.5 0.5,-1.4 0.4,-0.1 0.3,-0.4 0.4,-1 -0.8,-0.4 0.1,0.7 -0.5,1.1 -0.5,0.5 -0.3,1.1 0.3,0.7 -0.3,0.5 z"/><path d="m 433.6,282.1 -5.4,1.4 -1.7,1.3 -2.6,1.1 -1.6,0 -4.5,1 -2.5,2.1 -1.8,0.9 -0.5,-0.2 -1.5,-2.6 -0.6,-0 -0.5,3.3 -0.7,0.1 -3.4,-0.7 -3.1,-1.5 0.6,-1.6 -0.2,-0.7 -4.5,0.5 -2.8,-0.3 -0.6,0.5 -0.3,1 -0.8,0.8 -1.1,-0.1 -0.6,-3.1 -1.1,-3.7 -1,-1.9 -1.1,-1.3 -1.2,1 -1.5,2.4 -1.6,5.9 -0.6,0.2 -4.1,-1.4 -3.1,-1.7 -3.9,-0.4 -2.2,-1 -2.4,-0.4 0.5,-2.3 1.2,-1.9 0,-1.7 -0.6,0.3 -1.8,2.1 -0.7,1.2 -0.2,1.9 -0.3,0.5 0,0 -0.8,-0 -1,-0.5 -1,-3.3 0.7,-2.8 -0.4,-3 -0.5,-0.6 -0,-1.6 0.5,-3.3 -1.1,-2.3 0.1,-0.5 0.8,-0.9 0.2,-0.9 -1.4,-1.3 -0.1,-0.9 1.9,-6 0,-3 0.5,-3 1.9,-5.3 0.4,-0.3 0.4,-0.8 0.4,-3.1 1.1,-1.3 0.6,-1.9 0.7,-1 0,0 1.6,-3.7 1.1,-4.5 1.1,-1.6 1.2,-1.1 1.2,-1.7 1,-1.9 1.4,-0.9 1.1,-0.2 0.7,-0.8 0.9,-1.5 0.2,-1 1.7,-3.2 1.1,-0.8 1.8,-5.2 0.7,-4 -0.1,-0.3 -0.7,-0.3 -1.7,-1.7 -0.6,-0.9 -0.2,-0.9 0.1,-0.6 1.4,-1.7 1.3,-2.1 -0.1,-2.7 -0.4,-2.2 0.2,-0.3 2.5,-1.8 3.4,-1.1 2.5,-1.2 0.2,-0.5 -0.1,-1.5 0.9,-1.3 1.5,-1.3 1.3,-0.1 0.2,-1.3 -0.3,-1.2 0.3,-0.5 1.5,-0.5 0.6,-0.5 0.9,-2.8 -1,-1.3 -0.1,-1.4 0.3,-0.3 1,-0.1 0.7,-0.4 0.4,-0.7 0,-0.6 -1.3,-1.2 -0.9,-0.1 -0.4,-0.3 -1,-1.7 -1.3,-0.1 -1.9,0.3 -2.3,-0.8 0,0 0.5,-0.6 2.6,-1.9 2,-0.5 0.9,0.1 2.8,1.5 1.4,0.1 0.9,-0.5 1.7,0.3 0.6,0.7 0.1,1 0.3,0.3 1.2,0 3.4,1.4 0.8,1 0.5,3.5 0.6,1.5 -0.2,3.7 0.2,1.1 0.7,1.1 -0,0.4 -1.8,6.2 -0.3,2.4 0.3,1 -0.3,1.6 -1.8,2 -1.8,0.7 -0.2,0.7 1.9,1.3 0.4,-0.3 1.4,0.2 0.3,0.3 0.1,0.9 -0.6,1.2 0.8,1.4 0.9,-0.1 3,4.2 0.9,0.8 2.3,3 2.1,-1.3 4.3,-0.9 1.8,1.2 0.1,1.8 -0.6,3.3 0.4,1.4 -3.4,0.3 -1.3,0.5 -0.6,0.6 -0.7,1.4 -0.7,2.7 0.4,1.3 -2.6,2.5 -0.3,0.7 0.2,0.4 2.1,0.3 0.9,0.7 0.7,1.6 0.1,1.7 0.6,1 3.9,1.9 0.1,0.5 -1.6,1.8 0.1,1.6 2.1,1.6 1,2.9 1.3,2 0.7,0.2 1.8,-0.2 1,0.3 0.8,0.4 0.6,0.8 1.3,0.7 0,0 2.9,0.2 0,0 -0.7,0.7 -0.2,1 -0.6,0.5 -3.8,2 -3.2,2.6 -0.2,0.4 1.3,1.8 -0.4,0.4 -1,0.3 -0.9,0.6 -1.5,3.5 -1,0.7 -0.5,1.2 0.2,0.9 1.9,1.9 3.6,0.7 1.9,1 0.1,0.8 -0.6,0.5 -2,0.8 -0.4,1 0.1,0.5 0.3,0.3 1,-0.2 0.9,0.3 0.6,0.5 0.3,0.6 -1,0.7 -1.1,0.4 -1.9,1.7 -0.2,0.8 -0.1,2.9 0.3,1.3 0.9,0.7 1.1,0.2 0.4,0.3 0.2,0.4 0.1,1.1 -1.4,2.4 z"/></svg>